<?xml version="1.0" encoding="UTF-8"?>
<svg width="14px" height="14px" viewBox="0 0 14 14" version="1.1" xmlns="http://www.w3.org/2000/svg" xmlns:xlink="http://www.w3.org/1999/xlink">
    <!-- Generator: Sketch 47 (45396) - http://www.bohemiancoding.com/sketch -->
    <title>checkmark copy 3</title>
    <desc>Created with Sketch.</desc>
    <defs></defs>
    <g id="Page-1" stroke="none" stroke-width="1" fill="none" fill-rule="evenodd">
        <g id="updating-to-match-FCI-styles" transform="translate(-913.000000, -583.000000)" fill="#FFFFFF">
            <g id="checked-off" transform="translate(846.000000, 568.000000)">
                <path d="M67.2901871,24.41593 L70.6069502,28.1589034 C70.6069502,28.1589034 72.1389904,30.050404 73.274929,28.160353 C73.8664675,27.1765856 75.2815332,24.7575691 76.5125327,22.4295971 C79.4737105,16.8289316 81,15.1743713 81,15.1743713 C79.8072078,14.4426014 77.4443649,16.0664862 75.6180366,19.0615102 C74.7383093,20.5040074 72.8661497,23.6180861 72.2054285,24.7176816 C72.0559101,24.9665928 71.8693172,25.0067609 71.7101708,24.8355204 C71.2139546,24.3024867 70.135828,23.1328426 69.6627453,22.5328932 C69.5618901,22.4050474 69.401306,22.2244079 69.3236715,22.1313526 C69.1238345,21.8920743 68.7492544,21.8502228 68.4713908,22.0494733 C68.3177772,22.1598303 68.1699144,22.3064275 68.0287607,22.4454025 C67.7086381,22.7608085 67.3773626,23.0829481 67.1611012,23.3830163 C66.9322493,23.7002927 66.923449,24.0683989 67.2901871,24.41593" id="checkmark-copy-3"></path>
            </g>
        </g>
    </g>
</svg>