<?xml version="1.0" encoding="UTF-8"?>
<svg width="150px" height="42px" viewBox="0 0 150 42" version="1.1" xmlns="http://www.w3.org/2000/svg" xmlns:xlink="http://www.w3.org/1999/xlink">
    <!-- Generator: Sketch 47.1 (45422) - http://www.bohemiancoding.com/sketch -->
    <title>Course Progress 2@2x</title>
    <desc>Created with Sketch.</desc>
    <defs></defs>
    <g id="Matching-FCI" stroke="none" stroke-width="1" fill="none" fill-rule="evenodd">
        <g id="course-home-(two-profs)" transform="translate(-1133.000000, -512.000000)">
            <g id="%-and-laurels" transform="translate(1131.000000, 364.000000)">
                <g id="Course-Progress-2" transform="translate(2.000000, 148.000000)">
                    <polygon id="Fill-1" fill="#CCCCCC" points="74.0013592 42 62 30 74.0013592 18 86 30"></polygon>
                    <polygon id="Path" fill="#EDEDED" points="69.6873938 30 74.0013592 34.3117354 78.3126062 30 74.0013592 25.6882646"></polygon>
                    <g id="Group-42" fill="#CCCCCC">
                        <path d="M3.59408339,6.07692308 C1.72297633,6.07692308 0.210526316,4.87076923 0.210526316,3.38461538 C0.210526316,1.89846154 1.72297633,0.692307692 3.59408339,0.692307692 L145.706864,0.692307692 C147.577971,0.692307692 149.090421,1.89846154 149.090421,3.38461538 C149.090421,4.87076923 147.577971,6.07692308 145.706864,6.07692308 L3.59408339,6.07692308 Z" id="Fill-4"></path>
                        <path d="M100.666667,29.3076923 C100.666667,30.7965385 99.4589825,32 97.9649123,32 C96.4708421,32 95.2631579,30.7965385 95.2631579,29.3076923 C95.2631579,27.8188462 96.4708421,26.6153846 97.9649123,26.6153846 C99.4589825,26.6153846 100.666667,27.8188462 100.666667,29.3076923" id="Fill-30"></path>
                        <path d="M111.473684,29.3076923 C111.473684,30.7965385 110.266,32 108.77193,32 C107.27786,32 106.070175,30.7965385 106.070175,29.3076923 C106.070175,27.8188462 107.27786,26.6153846 108.77193,26.6153846 C110.266,26.6153846 111.473684,27.8188462 111.473684,29.3076923" id="Fill-32"></path>
                        <path d="M122.280702,29.3076923 C122.280702,30.7965385 121.073018,32 119.578947,32 C118.084877,32 116.877193,30.7965385 116.877193,29.3076923 C116.877193,27.8188462 118.084877,26.6153846 119.578947,26.6153846 C121.073018,26.6153846 122.280702,27.8188462 122.280702,29.3076923" id="Fill-34"></path>
                        <path d="M30.4210526,29.3076923 C30.4210526,30.7965385 29.2133684,32 27.7192982,32 C26.2252281,32 25.0175439,30.7965385 25.0175439,29.3076923 C25.0175439,27.8188462 26.2252281,26.6153846 27.7192982,26.6153846 C29.2133684,26.6153846 30.4210526,27.8188462 30.4210526,29.3076923" id="Fill-36"></path>
                        <path d="M41.2280702,29.3076923 C41.2280702,30.7965385 40.020386,32 38.5263158,32 C37.0322456,32 35.8245614,30.7965385 35.8245614,29.3076923 C35.8245614,27.8188462 37.0322456,26.6153846 38.5263158,26.6153846 C40.020386,26.6153846 41.2280702,27.8188462 41.2280702,29.3076923" id="Fill-38"></path>
                        <path d="M52.0350877,29.3076923 C52.0350877,30.7965385 50.8274035,32 49.3333333,32 C47.8392632,32 46.6315789,30.7965385 46.6315789,29.3076923 C46.6315789,27.8188462 47.8392632,26.6153846 49.3333333,26.6153846 C50.8274035,26.6153846 52.0350877,27.8188462 52.0350877,29.3076923" id="Fill-40"></path>
                    </g>
                </g>
            </g>
        </g>
    </g>
</svg>