<?xml version="1.0" encoding="UTF-8" standalone="no"?>
<svg width="16px" height="16px" viewBox="0 0 16 16" version="1.1" xmlns="http://www.w3.org/2000/svg" xmlns:xlink="http://www.w3.org/1999/xlink" xmlns:sketch="http://www.bohemiancoding.com/sketch/ns">
    <!-- Generator: Sketch 3.4.3 (16044) - http://www.bohemiancoding.com/sketch -->
    <title>Fill 1276</title>
    <desc>Created with Sketch.</desc>
    <defs></defs>
    <g id="Page-1" stroke="none" stroke-width="1" fill="none" fill-rule="evenodd" sketch:type="MSPage">
        <g id="Icons" sketch:type="MSLayerGroup" transform="translate(-640.000000, -1843.000000)" fill="#000000">
            <path d="M654,1843 L642,1843 C640.896,1843 640,1843.897 640,1845 L640,1857 C640,1858.103 640.896,1859 642,1859 L647,1859 L647,1858 L642,1858 C641.451,1858 641,1857.55 641,1857 L641,1848 L655,1848 L655,1851 L656,1851 L656,1845 C656,1843.897 655.104,1843 654,1843 L654,1843 Z M655,1847 L641,1847 L641,1845 C641,1844.45 641.451,1844 642,1844 L654,1844 C654.551,1844 655,1844.45 655,1845 L655,1847 Z M653,1854 L652,1851 L651,1854 L648,1854 L650.473,1855.703 L649,1859 L652,1857 L655,1859 L653.527,1855.703 L656,1854 L653,1854 Z M643.25,1844.75 C642.836,1844.75 642.5,1845.086 642.5,1845.5 C642.5,1845.914 642.836,1846.25 643.25,1846.25 C643.664,1846.25 644,1845.914 644,1845.5 C644,1845.086 643.664,1844.75 643.25,1844.75 Z M645.25,1844.75 C644.836,1844.75 644.5,1845.086 644.5,1845.5 C644.5,1845.914 644.836,1846.25 645.25,1846.25 C645.664,1846.25 646,1845.914 646,1845.5 C646,1845.086 645.664,1844.75 645.25,1844.75 Z M647.25,1844.75 C646.836,1844.75 646.5,1845.086 646.5,1845.5 C646.5,1845.914 646.836,1846.25 647.25,1846.25 C647.664,1846.25 648,1845.914 648,1845.5 C648,1845.086 647.664,1844.75 647.25,1844.75 Z" id="Fill-1276" sketch:type="MSShapeGroup"></path>
        </g>
    </g>
</svg>
