<?xml version="1.0" encoding="UTF-8"?>
<svg width="32px" height="24px" viewBox="0 0 32 24" version="1.1" xmlns="http://www.w3.org/2000/svg" xmlns:xlink="http://www.w3.org/1999/xlink">
    <!-- Generator: Sketch 47.1 (45422) - http://www.bohemiancoding.com/sketch -->
    <title>video@2x</title>
    <desc>Created with Sketch.</desc>
    <defs></defs>
    <g id="Matching-FCI" stroke="none" stroke-width="1" fill="none" fill-rule="evenodd">
        <g id="course-home-(3+-profs)" transform="translate(-290.000000, -847.000000)">
            <g id="video" transform="translate(290.000000, 847.000000)">
                <path d="M30.7692308,14.1538462 L29.1095385,14.1538462 L25.5723077,11.7956923 C25.4713846,11.7286154 25.352,11.6923077 25.2307692,11.6923077 L24,11.6923077 C23.6596923,11.6923077 23.3846154,11.9673846 23.3846154,12.3076923 L23.3846154,14.7698462 C23.3846154,16.1273846 22.2806154,17.2313846 20.9230769,17.2313846 L11.6904615,17.2313846 C11.5606154,17.2313846 11.4338462,17.2726154 11.3286154,17.3489231 L5.78707692,21.3790769 C5.90769231,20.2615385 5.89661538,18.8123077 5.23630769,17.9618462 C4.86769231,17.4873846 4.33846154,17.2350769 3.69230769,17.2313846 C2.33476923,17.2313846 1.23076923,16.1273846 1.23076923,14.7698462 L1.23076923,3.69230769 C1.23076923,2.33476923 2.33476923,1.23076923 3.69230769,1.23076923 L20.9230769,1.23076923 C22.2806154,1.23076923 23.3846154,2.33476923 23.3846154,3.69230769 L23.3846154,6.15384615 C23.3846154,6.49353846 23.6596923,6.76923077 24,6.76923077 L25.2307692,6.76923077 C25.352,6.76923077 25.4713846,6.73292308 25.5723077,6.66584615 L29.1095385,4.30769231 L30.7692308,4.30769231 L30.7692308,14.1538462 Z" id="Path-Copy-4" fill="#FADBD5"></path>
                <path d="M10.4615385,11.9272615 L10.4615385,6.53403077 L15.8547692,9.23064615 L10.4615385,11.9272615 Z M17.5058462,8.68049231 L10.1212308,4.98818462 C9.93046154,4.8928 9.704,4.90264615 9.52307692,5.01526154 C9.34153846,5.12726154 9.23076923,5.3248 9.23076923,5.53833846 L9.23076923,12.9229538 C9.23076923,13.1364923 9.34153846,13.3340308 9.52307692,13.4466462 C9.62153846,13.5075692 9.73353846,13.5383385 9.84615385,13.5383385 C9.94030769,13.5383385 10.0344615,13.5168 10.1212308,13.4737231 L17.5058462,9.78141538 C17.7144615,9.6768 17.8461538,9.46387692 17.8461538,9.23064615 C17.8461538,8.99741538 17.7144615,8.78449231 17.5058462,8.68049231 L17.5058462,8.68049231 Z" id="Fill-1" fill="#E74A2B"></path>
                <path d="M30.7692308,14.1538462 L29.1095385,14.1538462 L25.5723077,11.7956923 C25.4713846,11.7286154 25.352,11.6923077 25.2307692,11.6923077 L24,11.6923077 C23.6596923,11.6923077 23.3846154,11.9673846 23.3846154,12.3076923 L23.3846154,14.7698462 C23.3846154,16.1273846 22.2806154,17.2313846 20.9230769,17.2313846 L11.6904615,17.2313846 C11.5606154,17.2313846 11.4338462,17.2726154 11.3286154,17.3489231 L5.78707692,21.3790769 C5.90769231,20.2615385 5.89661538,18.8123077 5.23630769,17.9618462 C4.86769231,17.4873846 4.33846154,17.2350769 3.69230769,17.2313846 C2.33476923,17.2313846 1.23076923,16.1273846 1.23076923,14.7698462 L1.23076923,3.69230769 C1.23076923,2.33476923 2.33476923,1.23076923 3.69230769,1.23076923 L20.9230769,1.23076923 C22.2806154,1.23076923 23.3846154,2.33476923 23.3846154,3.69230769 L23.3846154,6.15384615 C23.3846154,6.49353846 23.6596923,6.76923077 24,6.76923077 L25.2307692,6.76923077 C25.352,6.76923077 25.4713846,6.73292308 25.5723077,6.66584615 L29.1095385,4.30769231 L30.7692308,4.30769231 L30.7692308,14.1538462 Z M31.3846154,3.07692308 L28.9230769,3.07692308 C28.8018462,3.07692308 28.6824615,3.11323077 28.5815385,3.18030769 L25.0443077,5.53846154 L24.6153846,5.53846154 L24.6153846,3.69230769 C24.6153846,1.656 22.9593846,0 20.9230769,0 L3.69230769,0 C1.656,0 0,1.656 0,3.69230769 L0,14.7698462 C0,16.8061538 1.656,18.4621538 3.69784615,18.4621538 C3.95384615,18.4633846 4.128,18.5421538 4.264,18.7163077 C4.83323077,19.4492308 4.60430769,21.5003077 4.32553846,22.6196923 C4.264,22.8707692 4.36492308,23.1347692 4.57907692,23.2787692 C4.68307692,23.3489231 4.80369231,23.384 4.92307692,23.384 C5.05046154,23.384 5.17723077,23.3452308 5.28492308,23.2664615 L11.8904615,18.4621538 L20.9230769,18.4621538 C22.9593846,18.4621538 24.6153846,16.8061538 24.6153846,14.7698462 L24.6153846,12.9230769 L25.0443077,12.9230769 L28.5815385,15.2812308 C28.6824615,15.3483077 28.8018462,15.3846154 28.9230769,15.3846154 L31.3846154,15.3846154 C31.7249231,15.3846154 32,15.1095385 32,14.7692308 L32,3.69230769 C32,3.35261538 31.7249231,3.07692308 31.3846154,3.07692308 L31.3846154,3.07692308 Z" id="Fill-3" fill="#E74A2B"></path>
                <polygon id="Path-Copy-3" fill="#FFFFFF" points="10.4615385 11.9272615 10.4615385 6.53403077 15.8547692 9.23064615"></polygon>
            </g>
        </g>
    </g>
</svg>