<?xml version="1.0" encoding="UTF-8"?>
<svg width="32px" height="23px" viewBox="0 0 32 23" version="1.1" xmlns="http://www.w3.org/2000/svg" xmlns:xlink="http://www.w3.org/1999/xlink">
    <!-- Generator: Sketch 47.1 (45422) - http://www.bohemiancoding.com/sketch -->
    <title>book@2x</title>
    <desc>Created with Sketch.</desc>
    <defs>
        <polygon id="path-1" points="0.478286245 0.20288 26.0777458 0.20288 26.0777458 18.763776 0.478286245 18.763776 0.478286245 0.20288"></polygon>
    </defs>
    <g id="Matching-FCI" stroke="none" stroke-width="1" fill="none" fill-rule="evenodd">
        <g id="course-home-(3+-profs)" transform="translate(-290.000000, -386.000000)">
            <g id="book" transform="translate(290.000000, 386.000000)">
                <path d="M27.998016,19.201024 C27.950656,19.201024 27.902656,19.195264 27.854656,19.185024 C27.799616,19.172224 22.316736,17.921024 19.678016,17.921024 C17.194816,17.921024 16.163776,18.472064 16.153536,18.477824 C15.957056,18.585984 15.710656,18.587264 15.515456,18.473984 C15.512256,18.472064 14.481216,17.921024 11.998016,17.921024 C9.359296,17.921024 3.876416,19.172224 3.821376,19.185024 C3.621696,19.229824 3.413056,19.178624 3.258816,19.044864 C3.104576,18.911104 3.023296,18.711424 3.040576,18.507904 L4.320576,3.148544 C4.332736,2.998144 4.398656,2.856064 4.505536,2.749184 C5.656896,1.596544 8.884416,0.593664 11.365696,0.641664 C12.710336,0.657024 14.175936,1.052544 15.838016,1.849344 C17.500096,1.052544 18.966336,0.657024 20.310336,0.641664 C22.842176,0.610944 26.019776,1.597184 27.170496,2.749184 C27.277376,2.856064 27.343296,2.998144 27.355456,3.148544 L28.635456,18.507904 C28.652736,18.711424 28.571456,18.911104 28.417216,19.044864 C28.300096,19.146624 28.150336,19.201024 27.998016,19.201024" id="Path-Copy-2" fill="#EFEBF8"></path>
                <path d="M1.526784,22.197248 C1.114624,22.197248 0.735744,22.053248 0.455424,21.783808 C0.103424,21.445888 -0.055936,20.943488 0.017664,20.405888 L2.384384,3.115008 C2.427904,2.797568 2.698624,2.561408 3.018624,2.561408 L4.957824,2.561408 C5.311744,2.561408 5.597824,2.848128 5.597824,3.201408 C5.597824,3.555328 5.311744,3.841408 4.957824,3.841408 L3.576704,3.841408 L1.286144,20.579968 C1.268864,20.707328 1.289344,20.810368 1.343104,20.862208 C1.396864,20.912768 1.499264,20.930048 1.627264,20.908288 C2.022144,20.838528 11.324544,19.200768 13.277824,19.200768 C13.631744,19.200768 13.917824,19.487488 13.917824,19.840768 C13.917824,20.000128 14.599424,20.480768 15.837824,20.480768 C17.076864,20.480768 17.757824,20.000128 17.757824,19.840768 C17.757824,19.487488 18.044544,19.200768 18.397824,19.200768 C20.351744,19.200768 29.653504,20.838528 30.048384,20.908288 C30.176384,20.930048 30.279424,20.912768 30.333184,20.862208 C30.386944,20.810368 30.407424,20.707328 30.390144,20.579968 L28.099584,3.841408 L26.717824,3.841408 C26.364544,3.841408 26.077824,3.555328 26.077824,3.201408 C26.077824,2.848128 26.364544,2.561408 26.717824,2.561408 L28.637824,2.561408 C28.957824,2.561408 29.247744,2.797568 29.291904,3.115008 L31.658624,20.405888 C31.731584,20.943488 31.572224,21.445888 31.220224,21.783808 C30.868224,22.123008 30.358144,22.262528 29.826304,22.168448 C26.788224,21.632768 20.934784,20.658048 18.857344,20.502528 C18.427904,21.251328 17.271424,21.760768 15.837824,21.760768 C14.404864,21.760768 13.247744,21.251328 12.818944,20.502528 C10.740864,20.658048 4.888064,21.632768 1.849984,22.168448 C1.740544,22.187648 1.632384,22.197248 1.526784,22.197248" id="Fill-1" fill="#633CBC"></path>
                <g id="Group-5" transform="translate(2.560000, 0.437248)">
                    <mask id="mask-2" fill="white">
                        <use xlink:href="#path-1"></use>
                    </mask>
                    <g id="Clip-4"></g>
                    <path d="M17.118016,16.203776 C19.277376,16.203776 23.041856,16.951936 24.728256,17.312256 L23.541056,3.072256 C22.566336,2.300416 19.951296,1.439616 17.765696,1.484416 C16.632896,1.497216 15.371456,1.838336 13.918016,2.525056 L13.918016,14.283776 C13.918016,14.637696 13.631936,14.923776 13.278016,14.923776 C12.924096,14.923776 12.638016,14.637696 12.638016,14.283776 L12.638016,2.525056 C11.184576,1.838336 9.923136,1.497216 8.790336,1.484416 C8.758336,1.483776 8.726336,1.483776 8.693696,1.483776 C6.544576,1.483776 3.975616,2.311936 3.014976,3.072256 L1.827776,17.312256 C3.514176,16.951936 7.278656,16.203776 9.438016,16.203776 C11.541056,16.203776 12.744896,16.563456 13.278016,16.779136 C13.811136,16.563456 15.014976,16.203776 17.118016,16.203776 M25.438016,18.763776 C25.390656,18.763776 25.342656,18.758016 25.294656,18.747776 C25.239616,18.734976 19.756736,17.483776 17.118016,17.483776 C14.634816,17.483776 13.603776,18.034816 13.593536,18.040576 C13.397056,18.148736 13.150656,18.150016 12.955456,18.036736 C12.952256,18.034816 11.921216,17.483776 9.438016,17.483776 C6.799296,17.483776 1.316416,18.734976 1.261376,18.747776 C1.061696,18.792576 0.853056,18.741376 0.698816,18.607616 C0.544576,18.473856 0.463296,18.274176 0.480576,18.070656 L1.760576,2.711296 C1.772736,2.560896 1.838656,2.418816 1.945536,2.311936 C3.096896,1.159296 6.324416,0.156416 8.805696,0.204416 C10.150336,0.219776 11.615936,0.615296 13.278016,1.412096 C14.940096,0.615296 16.406336,0.219776 17.750336,0.204416 C20.282176,0.173696 23.459776,1.159936 24.610496,2.311936 C24.717376,2.418816 24.783296,2.560896 24.795456,2.711296 L26.075456,18.070656 C26.092736,18.274176 26.011456,18.473856 25.857216,18.607616 C25.740096,18.709376 25.590336,18.763776 25.438016,18.763776" id="Fill-3" fill="#633CBC" mask="url(#mask-2)"></path>
                </g>
            </g>
        </g>
    </g>
</svg>