<?xml version="1.0" encoding="UTF-8"?>
<svg width="32px" height="29px" viewBox="0 0 32 29" version="1.1" xmlns="http://www.w3.org/2000/svg" xmlns:xlink="http://www.w3.org/1999/xlink">
    <!-- Generator: Sketch 47.1 (45422) - http://www.bohemiancoding.com/sketch -->
    <title>computer@2x</title>
    <desc>Created with Sketch.</desc>
    <defs></defs>
    <g id="Matching-FCI" stroke="none" stroke-width="1" fill="none" fill-rule="evenodd">
        <g id="course-home-(3+-profs)" transform="translate(-290.000000, -612.000000)">
            <g id="computer" transform="translate(290.000000, 612.000000)">
                <polygon id="Path" fill="#FFE4CE" points="3.69230769 19.0769231 28.3076923 19.0769231 28.3076923 3.69230769 3.69230769 3.69230769"></polygon>
                <path d="M3.69230769,19.0769231 L28.3076923,19.0769231 L28.3076923,3.69230769 L3.69230769,3.69230769 L3.69230769,19.0769231 Z M2.46153846,20.3076923 L29.5384615,20.3076923 L29.5384615,2.46153846 L2.46153846,2.46153846 L2.46153846,20.3076923 Z" id="Fill-1" fill="#FF943C"></path>
                <path d="M30.7692308,20.3083077 C30.7692308,20.9870769 30.2172308,21.5390769 29.5384615,21.5390769 L22.7692308,21.5390769 L22.7692308,21.5384615 L21.5347692,21.5384615 C21.4141538,21.8855385 19.5716923,22.7692308 16,22.7692308 C12.3993846,22.7692308 10.5538462,21.8707692 10.4615385,21.5384615 L9.23076923,21.5384615 L9.23076923,21.5390769 L2.46153846,21.5390769 C1.78276923,21.5390769 1.23076923,20.9870769 1.23076923,20.3083077 L1.23076923,2.46153846 C1.23076923,1.78276923 1.78276923,1.23076923 2.46153846,1.23076923 L29.5384615,1.23076923 C30.2172308,1.23076923 30.7692308,1.78276923 30.7692308,2.46153846 L30.7692308,20.3083077 Z M20.1132308,26.4295385 C21.3187692,26.832 22.5126154,26.9846154 23.2529231,27.0418462 C22.56,27.3064615 20.7378462,27.6923077 16,27.6923077 C11.2621538,27.6923077 9.44,27.3064615 8.74707692,27.0418462 C9.488,26.9846154 10.6812308,26.832 11.8867692,26.4295385 C13.0744615,26.0344615 13.6492308,24.9076923 13.6836923,23.8658462 C14.4369231,23.9550769 15.2246154,24 16,24 C16.7753846,24 17.5630769,23.9550769 18.3163077,23.8658462 C18.3507692,24.9076923 18.9255385,26.0344615 20.1132308,26.4295385 L20.1132308,26.4295385 Z M29.5384615,0 L2.46153846,0 C1.104,0 0,1.104 0,2.46153846 L0,20.3083077 C0,21.6658462 1.104,22.7698462 2.46153846,22.7698462 L10.0184615,22.7698462 C10.6,23.1698462 11.4572308,23.4701538 12.4535385,23.6726154 C12.4929231,24.3095385 12.1698462,25.0381538 11.4978462,25.2627692 C9.77538462,25.8363077 8.01661538,25.8461538 7.99938462,25.8461538 C7.86646154,25.8461538 7.73661538,25.8892308 7.63076923,25.9692308 C7.28615385,26.2276923 7.01415385,26.7175385 7.18523077,27.2283077 C7.464,28.0658462 8.73046154,28.9230769 16,28.9230769 C23.2695385,28.9230769 24.536,28.0658462 24.8147692,27.2283077 C24.9858462,26.7175385 24.7138462,26.2276923 24.3692308,25.9692308 C24.2627692,25.8892308 24.1335385,25.8461538 24,25.8461538 C23.9827692,25.8461538 22.2338462,25.8393846 20.5021538,25.2627692 C19.8301538,25.0381538 19.5070769,24.3095385 19.5464615,23.6726154 C20.5427692,23.4701538 21.4,23.1698462 21.9815385,22.7698462 L29.5384615,22.7698462 C30.896,22.7698462 32,21.6658462 32,20.3083077 L32,2.46153846 C32,1.104 30.896,0 29.5384615,0 L29.5384615,0 Z" id="Fill-2" fill="#FF943C"></path>
            </g>
        </g>
    </g>
</svg>