<?xml version="1.0" encoding="UTF-8"?>
<svg width="32px" height="29px" viewBox="0 0 32 29" version="1.1" xmlns="http://www.w3.org/2000/svg" xmlns:xlink="http://www.w3.org/1999/xlink">
    <!-- Generator: Sketch 47.1 (45422) - http://www.bohemiancoding.com/sketch -->
    <title>brain@2x</title>
    <desc>Created with Sketch.</desc>
    <defs>
        <polygon id="path-1" points="0.000290909091 0.726545455 32 0.726545455 32 28.3635636 0.000290909091 28.3635636"></polygon>
    </defs>
    <g id="Matching-FCI" stroke="none" stroke-width="1" fill="none" fill-rule="evenodd">
        <g id="course-home-(3+-profs)" transform="translate(-290.000000, -496.000000)">
            <g id="brain" transform="translate(290.000000, 496.000000)">
                <path d="M28.6846545,16.1854545 C27.7537455,16.8850909 26.0926545,17.5636364 23.4744727,16.8072727 C23.4417455,16.7978182 23.4104727,16.8043636 23.3777455,16.7992727 C22.6446545,14.6974545 19.6322909,13.1570909 15.8912,13.0989091 C15.3661091,12.7563636 14.6315636,11.8058182 14.4482909,10.68 C14.3130182,9.85163636 14.5202909,9.14981818 15.0642909,8.59418182 C15.3457455,8.30763636 15.3413818,7.84727273 15.0548364,7.56581818 C14.7668364,7.28581818 14.3064727,7.28872727 14.0264727,7.57672727 C13.5806545,8.03127273 13.2730182,8.55490909 13.1042909,9.13018182 C13.0635636,9.128 13.0235636,9.11563636 12.9806545,9.12072727 C12.9617455,9.12509091 10.9915636,9.34909091 9.97338182,8.31127273 C9.69265455,8.02472727 9.23083636,8.01963636 8.94501818,8.30181818 C8.65847273,8.58254545 8.65410909,9.04290909 8.93556364,9.33018182 C10.0104727,10.4269091 11.6024727,10.5992727 12.4970182,10.5992727 C12.6970182,10.5992727 12.8584727,10.5905455 12.9755636,10.5818182 C12.9857455,10.6916364 12.9944727,10.8021818 13.0126545,10.9141818 C13.1537455,11.776 13.5224727,12.5629091 13.9726545,13.192 C13.2228364,13.2814545 12.6177455,13.4174545 12.0933818,13.536 C10.8046545,13.8283636 10.0250182,14.0036364 8.2752,13.2887273 C7.90356364,13.1374545 7.47883636,13.3149091 7.32683636,13.6872727 C7.17483636,14.0589091 7.35301818,14.4836364 7.72538182,14.6356364 C8.40101818,14.9112727 8.97265455,15.0661818 9.48829091,15.1534545 C8.69410909,15.9003636 7.56101818,16.728 6.54574545,16.728 C6.14356364,16.728 5.81847273,17.0530909 5.81847273,17.4552727 C5.81847273,17.8567273 6.14356364,18.1825455 6.54574545,18.1825455 C9.05047273,18.1825455 11.3813818,15.2727273 11.4795636,15.1483636 C11.4795636,15.1483636 11.4795636,15.1476364 11.4802909,15.1476364 C11.7915636,15.0945455 12.0977455,15.0261818 12.4148364,14.9549091 C13.1333818,14.7912727 13.9377455,14.6116364 15.0635636,14.5621818 C15.2650182,14.552 15.4686545,14.5476364 15.6744727,14.5476364 C19.5166545,14.5476364 22.0962909,16.2276364 22.0962909,17.7970909 C22.0962909,19.4363636 19.5893818,20.5803636 16.0002909,20.5803636 C13.4468364,20.5803636 11.8977455,20.2450909 10.8992,19.48 C11.3232,18.9629091 11.5370182,18.5498182 11.5602909,18.5032727 C11.7392,18.1432727 11.5922909,17.7069091 11.2322909,17.5287273 C10.8730182,17.3505455 10.4352,17.4974545 10.2577455,17.8567273 C10.2453818,17.8821818 8.96829091,20.3861818 5.92610909,20.3861818 C3.50210909,20.3861818 1.45483636,18.7105455 1.45483636,16.728 C1.45483636,15.3861818 2.48756364,13.7338182 3.76610909,13.3207273 C3.89338182,13.8974545 4.1632,14.4210909 4.57192727,14.8370909 C4.71374545,14.9825455 4.90283636,15.0552727 5.0912,15.0552727 C5.2752,15.0552727 5.45847273,14.9861818 5.60029091,14.8472727 C5.88683636,14.5658182 5.8912,14.1054545 5.60974545,13.8189091 C5.08029091,13.2778182 5.10429091,12.5621818 5.16610909,12.184 C5.27883636,11.4901818 5.67374545,10.8618182 6.14938182,10.6189091 C6.50647273,10.4363636 6.64829091,9.99854545 6.46574545,9.64072727 C6.2832,9.28290909 5.84538182,9.14181818 5.48756364,9.32363636 C4.63810909,9.75709091 3.9712,10.7323636 3.75665455,11.8290909 C3.34574545,11.9032727 2.9552,12.0472727 2.59229091,12.2523636 C1.88610909,10.9083636 2.0432,9.42981818 3.06065455,8.22836364 C4.14065455,6.95054545 6.22065455,6.09527273 8.43592727,7.064 C8.80538182,7.22472727 9.23301818,7.05672727 9.39374545,6.68872727 C9.55447273,6.32072727 9.38647273,5.89163636 9.01847273,5.73090909 C8.20392727,5.37527273 7.4032,5.21454545 6.63956364,5.19636364 C7.00101818,3.87272727 8.42429091,2.90981818 10.1821091,2.90981818 C11.6999273,2.90981818 13.2912,4.22472727 13.8933818,5.44290909 C14.0715636,5.80290909 14.5064727,5.95054545 14.8679273,5.77236364 C15.2279273,5.59418182 15.3755636,5.15781818 15.1973818,4.79781818 C14.8439273,4.08290909 14.2417455,3.35563636 13.5013818,2.75781818 C14.1501091,2.32436364 14.8584727,2.13454545 15.6162909,2.192 C17.0970182,2.30472727 18.5181091,3.36 19.0548364,4.07345455 C19.1093818,4.14618182 19.1821091,4.19272727 19.2541091,4.23854545 C19.4206545,4.49163636 19.5217455,4.75127273 19.6817455,5.18181818 C19.7908364,5.47418182 20.0679273,5.65527273 20.3639273,5.65527273 C20.4482909,5.65527273 20.5333818,5.64072727 20.6170182,5.60945455 C20.9937455,5.46981818 21.1850182,5.05090909 21.0453818,4.67418182 C20.9333818,4.37163636 20.8315636,4.10109091 20.6977455,3.83418182 C20.9661091,3.76 21.2439273,3.72072727 21.5239273,3.72072727 C22.7893818,3.72072727 23.9515636,4.56436364 24.4642909,5.73890909 C22.5922909,5.98690909 20.9799273,6.95127273 19.9588364,8.37454545 C19.5239273,8.35418182 18.5173818,8.18327273 18.1457455,7.04727273 C18.0213818,6.66618182 17.6141091,6.45745455 17.2286545,6.58181818 C16.8468364,6.70690909 16.6388364,7.11709091 16.7632,7.49890909 C17.2192,8.896 18.2970182,9.51054545 19.2228364,9.73090909 C19.0962909,10.0574545 18.9944727,10.3978182 18.9232,10.7512727 C18.8446545,11.1454545 19.0992,11.5287273 19.4933818,11.608 C19.8868364,11.6850909 20.2701091,11.4312727 20.3493818,11.0378182 C20.8119273,8.73381818 22.8984727,7.12509091 25.4235636,7.12509091 C28.2475636,7.12509091 30.5457455,9.47490909 30.5457455,12.3643636 C30.5457455,13.8807273 29.8504727,15.3083636 28.6846545,16.1854545" id="Path-Copy" fill="#C9D1E1"></path>
                <g id="Group-3" transform="translate(0.000000, 0.000800)">
                    <mask id="mask-2" fill="white">
                        <use xlink:href="#path-1"></use>
                    </mask>
                    <g id="Clip-2"></g>
                    <path d="M28.6846545,16.1846545 C27.7537455,16.8842909 26.0926545,17.5628364 23.4744727,16.8064727 C23.4417455,16.7970182 23.4104727,16.8035636 23.3777455,16.7984727 C22.6446545,14.6966545 19.6322909,13.1562909 15.8912,13.0981091 C15.3661091,12.7555636 14.6315636,11.8050182 14.4482909,10.6792 C14.3130182,9.85083636 14.5202909,9.14901818 15.0642909,8.59338182 C15.3457455,8.30683636 15.3413818,7.84647273 15.0548364,7.56501818 C14.7668364,7.28501818 14.3064727,7.28792727 14.0264727,7.57592727 C13.5806545,8.03047273 13.2730182,8.55410909 13.1042909,9.12938182 C13.0635636,9.1272 13.0235636,9.11483636 12.9806545,9.11992727 C12.9617455,9.12429091 10.9915636,9.34829091 9.97338182,8.31047273 C9.69265455,8.02392727 9.23083636,8.01883636 8.94501818,8.30101818 C8.65847273,8.58174545 8.65410909,9.04210909 8.93556364,9.32938182 C10.0104727,10.4261091 11.6024727,10.5984727 12.4970182,10.5984727 C12.6970182,10.5984727 12.8584727,10.5897455 12.9755636,10.5810182 C12.9857455,10.6908364 12.9944727,10.8013818 13.0126545,10.9133818 C13.1537455,11.7752 13.5224727,12.5621091 13.9726545,13.1912 C13.2228364,13.2806545 12.6177455,13.4166545 12.0933818,13.5352 C10.8046545,13.8275636 10.0250182,14.0028364 8.2752,13.2879273 C7.90356364,13.1366545 7.47883636,13.3141091 7.32683636,13.6864727 C7.17483636,14.0581091 7.35301818,14.4828364 7.72538182,14.6348364 C8.40101818,14.9104727 8.97265455,15.0653818 9.48829091,15.1526545 C8.69410909,15.8995636 7.56101818,16.7272 6.54574545,16.7272 C6.14356364,16.7272 5.81847273,17.0522909 5.81847273,17.4544727 C5.81847273,17.8559273 6.14356364,18.1817455 6.54574545,18.1817455 C9.05047273,18.1817455 11.3813818,15.2719273 11.4795636,15.1475636 C11.4795636,15.1475636 11.4795636,15.1468364 11.4802909,15.1468364 C11.7915636,15.0937455 12.0977455,15.0253818 12.4148364,14.9541091 C13.1333818,14.7904727 13.9377455,14.6108364 15.0635636,14.5613818 C15.2650182,14.5512 15.4686545,14.5468364 15.6744727,14.5468364 C19.5166545,14.5468364 22.0962909,16.2268364 22.0962909,17.7962909 C22.0962909,19.4355636 19.5893818,20.5795636 16.0002909,20.5795636 C13.4468364,20.5795636 11.8977455,20.2442909 10.8992,19.4792 C11.3232,18.9621091 11.5370182,18.5490182 11.5602909,18.5024727 C11.7392,18.1424727 11.5922909,17.7061091 11.2322909,17.5279273 C10.8730182,17.3497455 10.4352,17.4966545 10.2577455,17.8559273 C10.2453818,17.8813818 8.96829091,20.3853818 5.92610909,20.3853818 C3.50210909,20.3853818 1.45483636,18.7097455 1.45483636,16.7272 C1.45483636,15.3853818 2.48756364,13.7330182 3.76610909,13.3199273 C3.89338182,13.8966545 4.1632,14.4202909 4.57192727,14.8362909 C4.71374545,14.9817455 4.90283636,15.0544727 5.0912,15.0544727 C5.2752,15.0544727 5.45847273,14.9853818 5.60029091,14.8464727 C5.88683636,14.5650182 5.8912,14.1046545 5.60974545,13.8181091 C5.08029091,13.2770182 5.10429091,12.5613818 5.16610909,12.1832 C5.27883636,11.4893818 5.67374545,10.8610182 6.14938182,10.6181091 C6.50647273,10.4355636 6.64829091,9.99774545 6.46574545,9.63992727 C6.2832,9.28210909 5.84538182,9.14101818 5.48756364,9.32283636 C4.63810909,9.75629091 3.9712,10.7315636 3.75665455,11.8282909 C3.34574545,11.9024727 2.9552,12.0464727 2.59229091,12.2515636 C1.88610909,10.9075636 2.0432,9.42901818 3.06065455,8.22756364 C4.14065455,6.94974545 6.22065455,6.09447273 8.43592727,7.0632 C8.80538182,7.22392727 9.23301818,7.05592727 9.39374545,6.68792727 C9.55447273,6.31992727 9.38647273,5.89083636 9.01847273,5.73010909 C8.20392727,5.37447273 7.4032,5.21374545 6.63956364,5.19556364 C7.00101818,3.87192727 8.42429091,2.90901818 10.1821091,2.90901818 C11.6999273,2.90901818 13.2912,4.22392727 13.8933818,5.44210909 C14.0715636,5.80210909 14.5064727,5.94974545 14.8679273,5.77156364 C15.2279273,5.59338182 15.3755636,5.15701818 15.1973818,4.79701818 C14.8439273,4.08210909 14.2417455,3.35483636 13.5013818,2.75701818 C14.1501091,2.32356364 14.8584727,2.13374545 15.6162909,2.1912 C17.0970182,2.30392727 18.5181091,3.3592 19.0548364,4.07265455 C19.1093818,4.14538182 19.1821091,4.19192727 19.2541091,4.23774545 C19.4206545,4.49083636 19.5217455,4.75047273 19.6817455,5.18101818 C19.7908364,5.47338182 20.0679273,5.65447273 20.3639273,5.65447273 C20.4482909,5.65447273 20.5333818,5.63992727 20.6170182,5.60865455 C20.9937455,5.46901818 21.1850182,5.05010909 21.0453818,4.67338182 C20.9333818,4.37083636 20.8315636,4.10029091 20.6977455,3.83338182 C20.9661091,3.7592 21.2439273,3.71992727 21.5239273,3.71992727 C22.7893818,3.71992727 23.9515636,4.56356364 24.4642909,5.73810909 C22.5922909,5.98610909 20.9799273,6.95047273 19.9588364,8.37374545 C19.5239273,8.35338182 18.5173818,8.18247273 18.1457455,7.04647273 C18.0213818,6.66538182 17.6141091,6.45665455 17.2286545,6.58101818 C16.8468364,6.70610909 16.6388364,7.11629091 16.7632,7.49810909 C17.2192,8.8952 18.2970182,9.50974545 19.2228364,9.73010909 C19.0962909,10.0566545 18.9944727,10.3970182 18.9232,10.7504727 C18.8446545,11.1446545 19.0992,11.5279273 19.4933818,11.6072 C19.8868364,11.6842909 20.2701091,11.4304727 20.3493818,11.0370182 C20.8119273,8.73301818 22.8984727,7.12429091 25.4235636,7.12429091 C28.2475636,7.12429091 30.5457455,9.47410909 30.5457455,12.3635636 C30.5457455,13.8799273 29.8504727,15.3075636 28.6846545,16.1846545 M25.9930182,5.69883636 C25.4053818,3.70829091 23.5872,2.26538182 21.5239273,2.26538182 C20.8992,2.26538182 20.2832,2.39774545 19.7130182,2.64429091 C18.8548364,1.81010909 17.3952,0.867563636 15.7268364,0.741018182 C14.4337455,0.640654545 13.2242909,1.05810909 12.1864727,1.9352 C11.5559273,1.64283636 10.8795636,1.45447273 10.1821091,1.45447273 C7.52247273,1.45447273 5.40247273,3.13156364 5.12392727,5.35556364 C3.81556364,5.66901818 2.69992727,6.39992727 1.94938182,7.28792727 C0.485381818,9.02029091 0.310109091,11.2537455 1.44829091,13.1773818 C0.5552,14.1541091 0.000290909091,15.4930182 0.000290909091,16.7272 C0.000290909091,18.3592 0.894836364,19.8122909 2.27956364,20.7490182 C3.31592727,23.5904727 6.10938182,24.5650182 8.35592727,24.7497455 C7.79083636,25.4719273 7.27301818,26.4559273 7.27301818,27.6362909 C7.27301818,28.0377455 7.59810909,28.3635636 8.00029091,28.3635636 C8.40174545,28.3635636 8.72756364,28.0377455 8.72756364,27.6362909 C8.72756364,25.8799273 10.5682909,24.6159273 10.5850182,24.6050182 C10.8657455,24.4181091 10.9799273,24.0632 10.8628364,23.7468364 C10.7457455,23.4312 10.4199273,23.2362909 10.0933818,23.2777455 C9.91592727,23.2995636 6.43229091,23.6857455 4.53410909,21.6915636 C4.98138182,21.7846545 5.44610909,21.8399273 5.92610909,21.8399273 C7.66501818,21.8399273 8.95156364,21.2152 9.85483636,20.5053818 C11.1275636,21.5708364 12.9806545,22.0341091 16.0002909,22.0341091 C16.2293818,22.0341091 16.4519273,22.0275636 16.6722909,22.0188364 C16.4148364,23.1570182 15.1653818,23.9162909 13.8439273,24.7126545 C12.5566545,25.4879273 11.3413818,26.2195636 10.9464727,27.4057455 C10.8199273,27.7868364 11.0257455,28.1992 11.4061091,28.3257455 C11.4832,28.3512 11.5602909,28.3635636 11.6366545,28.3635636 C11.9413818,28.3635636 12.2242909,28.1708364 12.3261091,27.8661091 C12.5515636,27.1890182 13.5901091,26.5635636 14.5937455,25.9584727 C16.1166545,25.0413818 17.9893818,23.9082909 18.1646545,21.8930182 C21.2192,21.4828364 23.1995636,20.1802909 23.5064727,18.3148364 C24.2381091,18.4922909 24.9508364,18.5853818 25.6344727,18.5853818 C27.1224727,18.5853818 28.4686545,18.1679273 29.5588364,17.3468364 C31.0875636,16.1970182 32.0002909,14.3344727 32.0002909,12.3635636 C32.0002909,8.86756364 29.3530182,5.99410909 25.9930182,5.69883636" id="Fill-1" fill="#1F4082" mask="url(#mask-2)"></path>
                </g>
                <path d="M15.7372364,18.4670545 C16.3939636,18.4670545 16.8637818,18.3514182 16.9074182,18.3397818 C16.9154182,18.3376 16.9205091,18.3317818 16.9285091,18.3303273 C17.4070545,18.7056 18.0601455,18.9063273 18.9088727,18.9063273 C19.3110545,18.9063273 19.6361455,18.5805091 19.6361455,18.1790545 C19.6361455,17.7768727 19.3110545,17.4517818 18.9088727,17.4517818 C17.4543273,17.4517818 17.4543273,16.7790545 17.4543273,16.0001455 C17.4543273,15.5986909 17.1292364,15.2728727 16.7270545,15.2728727 C16.3256,15.2728727 15.9997818,15.5986909 15.9997818,16.0001455 C15.9997818,16.3703273 16.0477818,16.6939636 16.1190545,16.9943273 C15.5219636,17.0532364 14.4157818,17.0299636 13.6077818,16.2146909 C13.3248727,15.9296 12.8652364,15.9259636 12.5786909,16.2096 C12.2943273,16.4925091 12.2914182,16.9521455 12.5736,17.2379636 C13.5743273,18.2481455 14.8339636,18.4670545 15.7372364,18.4670545" id="Fill-4" fill="#1F4082"></path>
                <path d="M26.9836364,14.5789091 C26.7610909,14.5549091 24.876,14.2952727 24.74,12.5592727 C25.6178182,12.1701818 26.5116364,11.5163636 26.8730909,10.408 C26.9981818,10.0261818 26.7894545,9.61527273 26.4076364,9.49090909 C26.0221818,9.36581818 25.6149091,9.57454545 25.4905455,9.95636364 C25.0098182,11.4283636 22.5167273,11.6589091 22.4934545,11.6603636 C22.0927273,11.6894545 21.7909091,12.0378182 21.82,12.4385455 C21.8476364,12.8210909 22.1669091,13.1134545 22.5443636,13.1134545 C22.5625455,13.1134545 22.5792727,13.1127273 22.5974545,13.1112727 C22.636,13.1090909 22.9232727,13.0843636 23.3290909,13.0029091 C23.6738182,15.1323636 25.7116364,15.9149091 26.8381818,16.0261818 C26.8621818,16.0283636 26.8861818,16.0298182 26.9094545,16.0298182 C27.2781818,16.0298182 27.5923636,15.7505455 27.6309091,15.3767273 C27.6716364,14.9781818 27.3814545,14.6218182 26.9836364,14.5789091" id="Fill-6" fill="#1F4082"></path>
            </g>
        </g>
    </g>
</svg>