<?xml version="1.0" encoding="UTF-8"?>
<svg width="32px" height="26px" viewBox="0 0 32 26" version="1.1" xmlns="http://www.w3.org/2000/svg" xmlns:xlink="http://www.w3.org/1999/xlink">
    <!-- Generator: Sketch 47.1 (45422) - http://www.bohemiancoding.com/sketch -->
    <title>discussion@2x</title>
    <desc>Created with Sketch.</desc>
    <defs>
        <polygon id="path-1" points="18.0869565 0.695304348 18.0869565 18.0866087 0.00027826087 18.0866087 0.00027826087 0.695304348"></polygon>
        <polygon id="path-3" points="0 11.1302609 0 0 22.2608696 0 22.2608696 22.2605217 0 22.2605217"></polygon>
    </defs>
    <g id="Matching-FCI" stroke="none" stroke-width="1" fill="none" fill-rule="evenodd">
        <g id="course-home-(3+-profs)" transform="translate(-290.000000, -730.000000)">
            <g id="discussion" transform="translate(290.000000, 730.000000)">
                <g id="Group-3" transform="translate(13.913043, 6.956870)">
                    <mask id="mask-2" fill="white">
                        <use xlink:href="#path-1"></use>
                    </mask>
                    <g id="Clip-2"></g>
                    <path d="M16.2785391,0.695304348 L7.49593043,0.695304348 C7.59123478,1.14886957 7.65245217,1.61147826 7.65245217,2.0866087 L16.2785391,2.0866087 C16.5046261,2.0866087 16.6959304,2.27791304 16.6959304,2.504 L16.6959304,12.104 C16.6959304,12.3307826 16.5046261,12.5213913 16.2785391,12.5213913 L14.3300174,12.5213913 C13.3331478,12.5213913 12.5220174,13.3332174 12.5220174,14.3307826 L12.5220174,15.7116522 L10.3223652,13.512 C9.7568,12.9471304 8.72862609,12.5213913 7.93071304,12.5213913 L1.80827826,12.5213913 C1.5821913,12.5213913 1.39158261,12.3307826 1.39158261,12.104 L1.39158261,9.72417391 C0.941495652,9.88417391 0.478886957,10.024 0.00027826087,10.133913 L0.00027826087,12.104 C0.00027826087,13.1015652 0.811408696,13.9126957 1.80827826,13.9126957 L7.93071304,13.9126957 C8.36201739,13.9126957 9.03332174,14.1909565 9.33871304,14.4963478 L12.7258435,17.8834783 C12.858713,18.0163478 13.0368,18.0866087 13.2176696,18.0866087 C13.3074087,18.0866087 13.3971478,18.069913 13.4834087,18.0337391 C13.7435826,17.9266087 13.9133217,17.6726957 13.9133217,17.3909565 L13.9133217,14.3307826 C13.9133217,14.104 14.1039304,13.9126957 14.3300174,13.9126957 L16.2785391,13.9126957 C17.2761043,13.9126957 18.0872348,13.1015652 18.0872348,12.104 L18.0872348,2.504 C18.0872348,1.50713043 17.2761043,0.695304348 16.2785391,0.695304348" id="Fill-1" fill="#00AB6C" mask="url(#mask-2)"></path>
                </g>
                <g id="Group-6" transform="translate(0.000000, 0.000348)">
                    <mask id="mask-4" fill="white">
                        <use xlink:href="#path-3"></use>
                    </mask>
                    <g id="Clip-5"></g>
                    <path d="M11.1304348,1.39095652 C5.76,1.39095652 1.39130435,4.824 1.39130435,9.04313043 C1.39130435,11.2121739 2.55304348,13.288 4.57878261,14.7384348 C4.80486957,14.8886957 6.95652174,16.3718261 6.95652174,18.0866087 L6.95652174,20.1735652 L11.4086957,16.8351304 C11.517913,16.7530435 11.6486957,16.7050435 11.7843478,16.6966957 C16.8793043,16.394087 20.8695652,13.032 20.8695652,9.04313043 C20.8695652,4.824 16.5008696,1.39095652 11.1304348,1.39095652 M6.26086957,22.2605217 C6.15513043,22.2605217 6.048,22.2368696 5.94991304,22.1874783 C5.71408696,22.069913 5.56521739,21.8285217 5.56521739,21.5648696 L5.56521739,18.0866087 C5.56521739,17.3165217 4.368,16.2695652 3.78782609,15.8834783 C1.37391304,14.1547826 0,11.6664348 0,9.04313043 C0,4.05669565 4.9933913,-0.000347826087 11.1304348,-0.000347826087 C17.2674783,-0.000347826087 22.2608696,4.05669565 22.2608696,9.04313043 C22.2608696,13.7102609 17.805913,17.6434783 12.0786087,18.072 L6.67826087,22.1213913 C6.55582609,22.213913 6.40834783,22.2605217 6.26086957,22.2605217" id="Fill-4" fill="#00AB6C" mask="url(#mask-4)"></path>
                </g>
                <path d="M11.1304348,1.39130435 C5.76,1.39130435 1.39130435,4.82434783 1.39130435,9.04347826 C1.39130435,11.2125217 2.55304348,13.2883478 4.57878261,14.7387826 C4.80486957,14.8890435 6.95652174,16.3721739 6.95652174,18.0869565 L6.95652174,20.173913 L11.4086957,16.8354783 C11.517913,16.7533913 11.6486957,16.7053913 11.7843478,16.6970435 C16.8793043,16.3944348 20.8695652,13.0323478 20.8695652,9.04347826 C20.8695652,4.82434783 16.5008696,1.39130435 11.1304348,1.39130435" id="Path-Copy-5" fill="#82D7B5"></path>
            </g>
        </g>
    </g>
</svg>