<?xml version="1.0" encoding="UTF-8"?>
<svg width="316px" height="40px" viewBox="0 0 316 40" version="1.1" xmlns="http://www.w3.org/2000/svg" xmlns:xlink="http://www.w3.org/1999/xlink">
    <!-- Generator: Sketch 47.1 (45422) - http://www.bohemiancoding.com/sketch -->
    <title>Combined Shape@2x</title>
    <desc>Created with Sketch.</desc>
    <defs></defs>
    <g id="Matching-FCI" stroke="none" stroke-width="1" fill="none" fill-rule="evenodd">
        <g id="calendar-(updating-to-match-FCI-styles)" transform="translate(-77.000000, -65.000000)" fill="#171F33">
            <g id="header" transform="translate(0.000000, 44.000000)">
                <path d="M87.3119669,44.6740115 C87.4515981,44.6740115 87.4728463,44.770772 87.4728463,44.9968658 C87.4728463,45.2052362 87.3322033,46.62455 87.170818,47.1730192 C87.0509173,47.589281 86.9517589,47.6826884 85.9131253,47.6826884 C84.473305,47.6826884 83.4341655,47.6462835 82.5351631,47.626644 C81.6361608,47.589281 80.9167565,47.5701205 80.0961702,47.5701205 C79.8766052,47.5701205 79.4369693,47.5701205 78.9578723,47.589281 C78.4990118,47.589281 77.9789362,47.626644 77.5787612,47.626644 C77.3187234,47.626644 77.1806099,47.5701205 77.1806099,47.4383921 C77.1806099,47.3440267 77.2585201,47.2855871 77.4978156,47.2855871 C77.7973144,47.2855871 78.0381277,47.2482242 78.2182317,47.2103822 C78.6179007,47.1351772 78.7185768,46.7193945 78.7995225,46.1694882 C78.8961513,45.3762437 78.8961513,43.8793299 78.8961513,42.1395568 L78.8961513,38.8108996 C78.8961513,35.93443 78.8961513,35.4051213 78.8587139,34.7982126 C78.818747,34.1544199 78.6583735,33.8531211 77.9981608,33.7194766 C77.8382931,33.6821137 77.6000095,33.6634322 77.3389598,33.6634322 C77.118383,33.6634322 77,33.6251112 77,33.4938618 C77,33.3602173 77.1391253,33.3223754 77.43913,33.3223754 C78.3786052,33.3223754 79.6378156,33.3788988 80.1771158,33.3788988 C80.6562128,33.3788988 82.1162695,33.3223754 82.8948652,33.3223754 C83.1741277,33.3223754 83.3152766,33.3602173 83.3152766,33.4938618 C83.3152766,33.6251112 83.1958818,33.6634322 82.9555745,33.6634322 C82.7339858,33.6634322 82.4157683,33.6821137 82.175461,33.7194766 C81.6361608,33.8133631 81.4752813,34.1357384 81.4358203,34.7982126 C81.3958534,35.4051213 81.3958534,35.93443 81.3958534,38.8108996 L81.3958534,42.1395568 C81.3958534,44.5609645 81.3958534,45.8681894 81.815253,46.2092463 C82.1562364,46.4928216 82.6763121,46.62455 84.2324917,46.62455 C85.2933853,46.62455 86.0709693,46.6063475 86.5723262,46.0942833 C86.8116217,45.8495079 87.0509173,45.3182832 87.0913901,44.9590239 C87.1111206,44.7889745 87.1510875,44.6740115 87.3119669,44.6740115 Z M94.8758298,47.2855871 C95.0969125,47.2855871 95.1970827,47.3440267 95.1970827,47.4383921 C95.1970827,47.5701205 95.0351915,47.626644 94.8166383,47.626644 C93.4992482,47.626644 92.2385201,47.5701205 91.6992199,47.5701205 C91.2403593,47.5701205 89.9816548,47.626644 89.181305,47.626644 C88.9227849,47.626644 88.7806241,47.5701205 88.7806241,47.4383921 C88.7806241,47.3440267 88.8625816,47.2855871 89.1018771,47.2855871 C89.4018818,47.2855871 89.6416832,47.2482242 89.8207754,47.2103822 C90.2204444,47.1351772 90.3408511,46.8132809 90.4000426,46.2652907 C90.5007187,45.4706091 90.5007187,43.9760904 90.5007187,42.1395568 L90.5007187,38.8108996 C90.5007187,35.93443 90.5007187,35.4051213 90.4607518,34.7982126 C90.420279,34.1544199 90.2204444,33.8330026 89.7808085,33.7386371 C89.5607376,33.6821137 89.3022175,33.6634322 89.062922,33.6634322 C88.8625816,33.6634322 88.741669,33.6251112 88.741669,33.4727852 C88.741669,33.3602173 88.9010307,33.3223754 89.2212719,33.3223754 C89.9816548,33.3223754 91.2403593,33.3788988 91.8191206,33.3788988 C92.3189598,33.3788988 93.4992482,33.3223754 94.2576076,33.3223754 C94.5166336,33.3223754 94.677513,33.3602173 94.677513,33.4727852 C94.677513,33.6251112 94.5571064,33.6634322 94.3572719,33.6634322 C94.1579433,33.6634322 93.996052,33.6821137 93.7582742,33.7194766 C93.2179622,33.8133631 93.0596123,34.1357384 93.0191395,34.7982126 C92.9786667,35.4051213 92.9786667,35.93443 92.9786667,38.8108996 L92.9786667,42.1395568 C92.9786667,43.9760904 92.9786667,45.4706091 93.0596123,46.2844512 C93.1188038,46.7945994 93.2579291,47.1351772 93.8584444,47.2103822 C94.1377069,47.2482242 94.5773428,47.2855871 94.8758298,47.2855871 Z M104.351527,39.4714577 C105.988652,40.0031615 107.988515,41.3453542 107.988515,43.5598286 C107.988515,45.5841351 106.330142,47.6826884 102.652681,47.6826884 C102.412879,47.6826884 101.8326,47.6462835 101.252827,47.626644 C100.654842,47.589281 100.05382,47.5701205 99.7543215,47.5701205 C99.5347565,47.5701205 99.0936028,47.5701205 98.6160236,47.589281 C98.1561513,47.589281 97.6365816,47.626644 97.2359007,47.626644 C96.9773806,47.626644 96.8377494,47.5701205 96.8377494,47.4383921 C96.8377494,47.3435476 96.9156596,47.2855871 97.1559669,47.2855871 C97.4554657,47.2855871 97.695773,47.2482242 97.876383,47.2103822 C98.276052,47.1351772 98.3747045,46.7193945 98.4556501,46.1694882 C98.5568322,45.3762437 98.5568322,43.8793299 98.5568322,42.1395568 L98.5568322,38.8108996 C98.5568322,35.93443 98.5568322,35.4051213 98.5148416,34.7982126 C98.4768983,34.1544199 98.3139953,33.8531211 97.6563121,33.7194766 C97.4964444,33.6821137 97.1559669,33.6634322 96.8767045,33.6634322 C96.6576454,33.6634322 96.5367329,33.6251112 96.5367329,33.4938618 C96.5367329,33.3602173 96.67687,33.3223754 96.9773806,33.3223754 C98.0352388,33.3223754 99.2944492,33.3788988 99.6941182,33.3788988 C100.67356,33.3788988 101.453168,33.3223754 102.133111,33.3223754 C105.750369,33.3223754 106.388322,35.1579509 106.388322,36.1600449 C106.388322,37.7110871 105.44834,38.6398921 104.351527,39.4714577 Z M100.95434,34.4576348 C100.95434,34.2492644 100.993296,34.1735804 101.133939,34.1357384 C101.333773,34.0983755 101.511348,34.0983755 101.792128,34.0983755 C103.51121,34.0983755 104.292336,35.7624646 104.292336,37.0313685 C104.292336,37.9577785 103.989801,38.6398921 103.471749,39.0369934 C103.131778,39.3215268 102.691636,39.3957737 102.032435,39.3957737 C101.574586,39.3957737 101.274076,39.3775712 101.093466,39.3397293 C101.013532,39.3215268 100.95434,39.2832058 100.95434,39.1323169 L100.95434,34.4576348 L100.95434,34.4576348 Z M103.112047,46.8314834 C102.652681,46.8314834 102.191797,46.8132809 101.653508,46.6063475 C101.013532,46.3591771 100.95434,46.0372808 100.95434,44.7889745 L100.95434,40.3049393 C100.95434,40.2100948 100.993296,40.1722528 101.072723,40.1722528 C101.37374,40.1722528 101.574586,40.1722528 101.933783,40.1914133 C102.711366,40.2287763 103.172251,40.3609837 103.59165,40.6455171 C105.108875,41.6480901 105.529792,43.2379323 105.529792,44.4115127 C105.529792,46.3788166 104.011556,46.8314834 103.112047,46.8314834 Z M118.444667,44.7511325 C118.60504,44.7511325 118.60504,44.9025004 118.60504,45.0926683 C118.60504,45.5276116 118.444667,46.8132809 118.343485,47.1917007 C118.203348,47.6826884 118.024761,47.6826884 117.26539,47.6826884 C115.765872,47.6826884 114.668047,47.6462835 113.808506,47.626644 C112.94947,47.589281 112.328719,47.5701205 111.730733,47.5701205 C111.509144,47.5701205 111.070014,47.5701205 110.590411,47.589281 C110.130539,47.589281 109.611475,47.626644 109.211806,47.626644 C108.952274,47.626644 108.812137,47.5701205 108.812137,47.4383921 C108.812137,47.3440267 108.891565,47.2855871 109.131872,47.2855871 C109.431371,47.2855871 109.670667,47.2482242 109.852288,47.2103822 C110.249428,47.1351772 110.350104,46.7193945 110.429532,46.1694882 C110.53122,45.3762437 110.53122,43.8793299 110.53122,42.1395568 L110.53122,38.8108996 C110.53122,35.93443 110.53122,35.4051213 110.488723,34.7982126 C110.451792,34.1548989 110.289395,33.8531211 109.632723,33.7189976 C109.471844,33.6821137 109.131872,33.6634322 108.851092,33.6634322 C108.631527,33.6634322 108.511626,33.6251112 108.511626,33.4938618 C108.511626,33.3602173 108.651258,33.3223754 108.952274,33.3223754 C109.491574,33.3223754 110.071348,33.3420149 110.570681,33.3420149 C111.089745,33.3602173 111.548605,33.3788988 111.829385,33.3788988 C112.467338,33.3788988 116.446322,33.3788988 116.824236,33.3602173 C117.204681,33.3223754 117.525428,33.2835753 117.686307,33.2471704 C117.78496,33.2284889 117.904861,33.1695704 118.006043,33.1695704 C118.104189,33.1695704 118.125437,33.2471704 118.125437,33.3420149 C118.125437,33.4727852 118.024761,33.7007952 117.964052,34.5706817 C117.944322,34.7608496 117.904861,35.5924152 117.865905,35.8209041 C117.844151,35.9152695 117.805702,36.0287955 117.664553,36.0287955 C117.525428,36.0287955 117.485967,35.93443 117.485967,35.7624646 C117.485967,35.6302572 117.465225,35.3093188 117.366572,35.082746 C117.224411,34.7421681 117.025083,34.5146372 116.026922,34.4015903 C115.68695,34.3632693 113.586411,34.3263854 113.187754,34.3263854 C113.08809,34.3263854 113.049135,34.3829088 113.049135,34.5146372 L113.049135,39.3009293 C113.049135,39.4340947 113.068359,39.5092997 113.187754,39.5092997 C113.62739,39.5092997 115.926752,39.5092997 116.385612,39.4714577 C116.866227,39.4340947 117.167243,39.3775712 117.345324,39.1878823 C117.485967,39.0369934 117.564889,38.942628 117.664553,38.942628 C117.744487,38.942628 117.805702,38.98047 117.805702,39.0930379 C117.805702,39.2060848 117.725262,39.5092997 117.644317,40.4759467 C117.624586,40.8538875 117.564889,41.6102481 117.564889,41.7424555 C117.564889,41.8938234 117.564889,42.1026729 117.385291,42.1026729 C117.245154,42.1026729 117.204681,42.0265099 117.204681,41.9331025 C117.185456,41.7424555 117.185456,41.4967222 117.125253,41.2509888 C117.025083,40.873048 116.744809,40.5885146 116.006686,40.5128307 C115.626241,40.4759467 113.648638,40.4567862 113.167518,40.4567862 C113.068359,40.4567862 113.049135,40.5315121 113.049135,40.6455171 L113.049135,42.1395568 C113.049135,42.7838285 113.028898,44.5236016 113.049135,45.0744658 C113.08809,46.3788166 113.407825,46.66335 115.447655,46.66335 C115.965707,46.66335 116.80653,46.66335 117.324582,46.4348611 C117.844151,46.2092463 118.085976,45.812624 118.224596,45.0356658 C118.265574,44.8268164 118.30453,44.7511325 118.444667,44.7511325 Z M135.133631,47.2855871 C135.294511,47.2855871 135.375456,47.3440267 135.375456,47.4383921 C135.375456,47.589281 135.235319,47.626644 134.994506,47.626644 L133.096331,47.626644 C131.977764,47.626644 131.47843,47.5332366 130.957849,47.2673847 C130.09679,46.8314834 129.33843,45.9443524 128.219863,44.4862386 C127.420525,43.4463027 126.501286,42.1596753 126.24226,41.8741839 C126.140572,41.762095 126.021683,41.7424555 125.880534,41.7424555 L124.144251,41.7060506 C124.042563,41.7060506 123.983371,41.7424555 123.983371,41.8555024 L123.983371,42.1208753 C123.983371,43.8798089 123.983371,45.3762437 124.083541,46.1694882 C124.144251,46.7193945 124.262634,47.1351772 124.863149,47.2103822 C125.162648,47.2482242 125.601272,47.2855871 125.841579,47.2855871 C126.000435,47.2855871 126.081381,47.3440267 126.081381,47.4383921 C126.081381,47.5701205 125.941243,47.626644 125.6807,47.626644 C124.523177,47.626644 123.044402,47.5701205 122.742879,47.5701205 C122.363953,47.5701205 121.106766,47.626644 120.306922,47.626644 C120.046378,47.626644 119.906747,47.5701205 119.906747,47.4383921 C119.906747,47.3440267 119.985669,47.2855871 120.226988,47.2855871 C120.526487,47.2855871 120.765277,47.2482242 120.945887,47.2103822 C121.344038,47.1351772 121.44522,46.7193945 121.525154,46.1694882 C121.625324,45.3762437 121.625324,43.8793299 121.625324,42.1395568 L121.625324,38.8108996 C121.625324,35.93443 121.625324,35.4051213 121.584345,34.7982126 C121.544884,34.1548989 121.385017,33.8531211 120.726322,33.7189976 C120.56443,33.6821137 120.226988,33.6634322 119.946208,33.6634322 C119.726137,33.6634322 119.606236,33.6251112 119.606236,33.4938618 C119.606236,33.3602173 119.745362,33.3223754 120.046378,33.3223754 C121.106766,33.3223754 122.363953,33.3788988 122.783858,33.3788988 C123.46279,33.3788988 124.982038,33.3223754 125.601272,33.3223754 C126.861494,33.3223754 128.199626,33.4349433 129.280757,34.1357384 C129.839281,34.4954767 130.638113,35.4611658 130.638113,36.7281536 C130.638113,38.1297439 130.017362,39.4158922 128.00131,40.9669344 C129.78009,43.0875224 131.157177,44.770772 132.33696,45.9443524 C133.457045,47.0408118 134.275102,47.1730192 134.575106,47.2290637 C134.79366,47.2673847 134.974775,47.2855871 135.133631,47.2855871 Z M127.099778,40.5128307 C126.741087,40.758085 126.480038,40.835206 125.6807,40.835206 C125.182884,40.835206 124.582875,40.7772455 124.163981,40.6455171 C124.023338,40.5885146 123.983371,40.5128307 123.983371,40.3049393 L123.983371,34.5515212 C123.983371,34.4015903 124.023338,34.3263854 124.163981,34.2871063 C124.362804,34.2301039 124.723012,34.2123804 125.222345,34.2123804 C126.401116,34.2123804 128.280572,34.9874225 128.280572,37.6742031 C128.280572,39.2281194 127.700293,40.0975269 127.099778,40.5128307 Z M160.608738,33.3223754 C160.828809,33.3223754 160.968946,33.3602173 160.968946,33.4727852 C160.968946,33.6059507 160.808572,33.6634322 160.589513,33.6634322 C160.388667,33.6634322 160.008222,33.7386371 159.710241,33.889047 C159.290336,34.079694 159.069253,34.3077039 158.630629,34.8173731 C157.970922,35.5746917 155.173745,40.0199269 154.812525,40.835206 C154.51252,41.5149246 154.51252,42.1026729 154.51252,42.727784 L154.51252,44.2793052 C154.51252,44.580125 154.51252,45.3762437 154.574747,46.1694882 C154.613702,46.7193945 154.793806,47.1351772 155.391286,47.2103822 C155.673078,47.2482242 156.112714,47.2855871 156.391976,47.2855871 C156.613565,47.2855871 156.7107,47.3440267 156.7107,47.4383921 C156.7107,47.5701205 156.551338,47.626644 156.290794,47.626644 C155.031584,47.626644 153.774397,47.5701205 153.234591,47.5701205 C152.734246,47.5701205 151.475541,47.626644 150.735901,47.626644 C150.455121,47.626644 150.296265,47.589281 150.296265,47.4383921 C150.296265,47.3440267 150.396941,47.2855871 150.617012,47.2855871 C150.895262,47.2855871 151.136582,47.2482242 151.31618,47.2103822 C151.714331,47.1351772 151.893929,46.7193945 151.935414,46.1694882 C151.995111,45.3762437 151.995111,44.580125 151.995111,44.2793052 L151.995111,42.727784 C151.995111,41.7060506 151.795277,41.2883518 151.536251,40.7408406 C151.396113,40.4357097 148.718837,36.2750079 148.018657,35.2901583 C147.671097,34.8034817 147.327078,34.4336841 147.018473,34.1783705 C146.794861,34.0145483 145.98844,33.4727852 145.962132,34.2229187 C145.945943,34.7661188 145.918118,35.4525435 145.918118,35.7830621 C145.897376,35.971793 145.857915,36.0843609 145.737508,36.0843609 C145.579158,36.0843609 145.539191,35.9899955 145.518449,35.7059411 L145.498213,35.4994868 C145.458752,35.005625 144.916922,34.4758372 143.140671,34.4394323 L140.622757,34.3829088 L140.622757,42.1395568 C140.622757,43.8798089 140.622757,45.3762437 140.721915,46.1886487 C140.781106,46.7193945 140.902525,47.1351772 141.500511,47.2103822 C141.780785,47.2482242 142.220927,47.2855871 142.521943,47.2855871 C142.739991,47.2855871 142.841173,47.3440267 142.841173,47.4383921 C142.841173,47.5701205 142.680799,47.626644 142.462246,47.626644 C141.141314,47.626644 139.88261,47.5701205 139.323579,47.5701205 C138.864719,47.5701205 137.603485,47.626644 136.805158,47.626644 C136.545626,47.626644 136.406501,47.5701205 136.406501,47.4383921 C136.406501,47.3440267 136.484917,47.2855871 136.724213,47.2855871 C137.024723,47.2855871 137.263513,47.2482242 137.444629,47.2103822 C137.843286,47.1351772 137.966222,46.7193945 138.024402,46.1694882 C138.124066,45.3762437 138.124066,43.8798089 138.124066,42.1395568 L138.124066,34.3829088 L135.146279,34.4576348 C133.986227,34.4954767 133.508648,34.5912792 133.207631,35.005625 C133.008809,35.2901583 132.908132,35.5176892 132.868671,35.6685781 C132.82921,35.8209041 132.767995,35.896109 132.647589,35.896109 C132.508463,35.896109 132.468496,35.8017436 132.468496,35.5924152 C132.468496,35.2901583 132.848941,33.5695458 132.887896,33.4167408 C132.947087,33.1695704 133.008809,33.0565235 133.126686,33.0565235 C133.287059,33.0565235 133.488411,33.2471704 133.986227,33.2835753 C134.566506,33.3420149 135.327395,33.3788988 135.985584,33.3788988 L143.899537,33.3788988 C144.034615,33.3788988 144.155021,33.3750667 144.274922,33.3717136 C144.29617,33.3717136 144.314889,33.3702766 144.336643,33.3702766 C144.339173,33.3688396 144.342714,33.3688396 144.345243,33.3688396 C144.831929,33.3530321 145.294331,33.3444099 145.687423,33.3420149 C145.785064,33.3420149 145.873598,33.3400988 145.962132,33.3400988 C146.478667,33.3400988 146.816615,33.3444099 146.816615,33.3444099 C147.37008,33.3602173 148.021187,33.3788988 148.399102,33.3788988 C148.817489,33.3788988 149.638076,33.3223754 150.53809,33.3223754 C150.735901,33.3223754 150.836071,33.3788988 150.836071,33.4938618 C150.836071,33.6059507 150.695934,33.6251112 150.396941,33.7007952 C150.216331,33.7386371 150.115149,33.889047 150.115149,34.042331 C150.115149,34.1917829 150.216331,34.4197928 150.356974,34.6851657 C150.637248,35.2527954 153.435943,39.8120355 153.754667,40.3418232 C153.953995,39.8886775 156.47191,35.7274967 156.751173,35.1392694 C156.951007,34.7234867 157.031447,34.4015903 157.031447,34.1548989 C157.031447,33.966168 156.951007,33.7568396 156.613565,33.6821137 C156.432955,33.6447507 156.251839,33.6059507 156.251839,33.4938618 C156.251839,33.3602173 156.353021,33.3223754 156.591811,33.3223754 C157.251012,33.3223754 157.891494,33.3788988 158.468738,33.3788988 C158.910903,33.3788988 160.229305,33.3223754 160.608738,33.3223754 Z M181.294392,33.4938618 C181.294392,33.6251112 181.175504,33.6634322 180.936714,33.6634322 C180.715631,33.6634322 180.59573,33.6821137 180.354917,33.7189976 C179.817135,33.8138421 179.656255,34.1357384 179.6173,34.7982126 C179.576322,35.4051213 179.576322,35.93443 179.576322,38.8108996 L179.576322,40.835206 C179.576322,42.9366335 179.356757,45.1669152 177.678147,46.5316216 C176.258563,47.6826884 174.82026,47.8924959 173.521083,47.8924959 C172.460189,47.8924959 170.543296,47.8359724 169.083745,46.5881451 C168.064336,45.7149054 167.304965,44.3161892 167.304965,41.5733641 L167.304965,38.8108996 C167.304965,35.93443 167.304965,35.4051213 167.265504,34.7982126 C167.226043,34.1548989 167.066175,33.8531211 166.406468,33.7189976 C166.246095,33.6821137 165.907135,33.6634322 165.626355,33.6634322 C165.40679,33.6634322 165.287395,33.6251112 165.287395,33.4938618 C165.287395,33.3602173 165.425508,33.3223754 165.727537,33.3223754 C166.785395,33.3223754 168.045617,33.3788988 168.644615,33.3788988 C169.124217,33.3788988 170.385452,33.3223754 171.103338,33.3223754 C171.402837,33.3223754 171.542974,33.3602173 171.542974,33.4938618 C171.542974,33.6251112 171.423073,33.6634322 171.223239,33.6634322 C171.003168,33.6634322 170.884279,33.6821137 170.64296,33.7189976 C170.10366,33.8133631 169.944804,34.1357384 169.902813,34.7982126 C169.862846,35.4051213 169.862846,35.93443 169.862846,38.8108996 L169.862846,41.4588802 C169.862846,44.2026633 170.443631,45.3561251 171.423073,46.1148808 C172.32157,46.8132809 173.240303,46.8899229 173.921764,46.8899229 C174.801035,46.8899229 175.879636,46.625029 176.678468,45.8681894 C177.778317,44.8268164 177.839026,43.1248853 177.839026,41.1738678 L177.839026,38.8108996 C177.839026,35.93443 177.839026,35.4051213 177.797035,34.7982126 C177.75808,34.1548989 177.598719,33.8531211 176.937494,33.7189976 C176.778638,33.6821137 176.438161,33.6634322 176.218596,33.6634322 C176.001054,33.6634322 175.879636,33.6251112 175.879636,33.4938618 C175.879636,33.3602173 176.018761,33.3223754 176.299541,33.3223754 C177.317939,33.3223754 178.578667,33.3788988 178.598397,33.3788988 C178.838704,33.3788988 180.095891,33.3223754 180.876005,33.3223754 C181.155267,33.3223754 181.294392,33.3602173 181.294392,33.4938618 Z M196.734265,33.3223754 C196.993291,33.3223754 197.192619,33.3420149 197.192619,33.4938618 C197.192619,33.6059507 197.07373,33.6634322 196.833423,33.6634322 C196.633589,33.6634322 196.476251,33.6634322 196.234426,33.7189976 C195.674383,33.8703656 195.514515,34.2684249 195.495797,35.3289583 L195.27522,47.2693007 C195.27522,47.6826884 195.195286,47.8546539 195.015688,47.8546539 C194.794605,47.8546539 194.55531,47.6462835 194.337262,47.4383921 C193.07704,46.3031327 190.519664,43.8232854 188.440374,41.8741839 C186.26243,39.831675 184.043508,37.4648747 183.684312,37.1065734 L183.625121,37.1065734 L183.843674,45.0548263 C183.883641,46.5316216 184.145196,47.0226093 184.542842,47.1543377 C184.883319,47.2693007 185.263258,47.2870242 185.582487,47.2870242 C185.803064,47.2870242 185.92347,47.3258242 185.92347,47.4383921 C185.92347,47.589281 185.742355,47.626644 185.463598,47.626644 C184.163915,47.626644 183.365083,47.5701205 182.984638,47.5701205 C182.804534,47.5701205 181.865565,47.626644 180.82592,47.626644 C180.5674,47.626644 180.387296,47.6074835 180.387296,47.4383921 C180.387296,47.3258242 180.505678,47.2870242 180.707031,47.2870242 C180.966563,47.2870242 181.326265,47.2693007 181.606539,47.1917007 C182.126109,47.0408118 182.206548,46.4933006 182.224761,44.8454979 L182.403853,33.6447507 C182.403853,33.2653729 182.46608,33 182.664397,33 C182.884468,33 183.063054,33.2471704 183.404038,33.5882272 C183.643839,33.8330026 186.682842,36.9178425 189.599414,39.6625836 C190.957277,40.9477739 193.657319,43.6733545 193.995773,43.9760904 L194.095943,43.9760904 L193.895603,35.4803263 C193.87739,34.3263854 193.696274,33.966168 193.217177,33.7764791 C192.916667,33.6634322 192.437064,33.6634322 192.157801,33.6634322 C191.916482,33.6634322 191.838066,33.6059507 191.838066,33.4938618 C191.838066,33.3420149 192.058137,33.3223754 192.358142,33.3223754 C193.39627,33.3223754 194.356487,33.3788988 194.775887,33.3788988 C194.993934,33.3788988 195.755329,33.3223754 196.734265,33.3223754 Z M229.622473,44.7511325 C229.78234,44.7511325 229.78234,44.9025004 229.78234,45.0926683 C229.78234,45.5276116 229.622473,46.8132809 229.523314,47.1917007 C229.38166,47.6826884 229.203073,47.6826884 228.441678,47.6826884 C226.945702,47.6826884 225.844336,47.6462835 224.983783,47.626644 C224.124241,47.589281 223.506525,47.5701205 222.907527,47.5701205 C222.687456,47.5701205 222.248832,47.5701205 221.768723,47.589281 C221.307333,47.589281 220.789281,47.626644 220.390624,47.626644 C220.129574,47.626644 219.988931,47.5701205 219.988931,47.4383921 C219.988931,47.3440267 220.070383,47.2870242 220.308667,47.2870242 C220.608165,47.2870242 220.846955,47.2482242 221.028071,47.2103822 C221.43027,47.1351772 221.52791,46.7193945 221.609362,46.1694882 C221.70852,45.3762437 221.70852,43.8798089 221.70852,42.1395568 L221.70852,38.8108996 C221.70852,35.93443 221.70852,35.4046423 221.668553,34.7982126 C221.628586,34.1548989 221.468213,33.8531211 220.808,33.7189976 C220.648132,33.6821137 220.308667,33.6634322 220.029404,33.6634322 C219.971225,33.6634322 219.921139,33.6600791 219.878137,33.6533729 C219.834629,33.6600791 219.789097,33.6634322 219.737494,33.6634322 C219.536648,33.6634322 219.11826,33.6634322 218.757546,33.889047 C218.498014,34.0605335 218.199021,34.3829088 217.658203,35.5924152 C216.881125,37.3709883 216.339801,38.3941588 215.260189,40.720722 C213.982766,43.4846237 213.042785,45.5462931 212.600619,46.4933006 C212.084085,47.589281 211.962667,47.8924959 211.68391,47.8924959 C211.42539,47.8924959 211.301948,47.626644 210.924033,46.738076 L205.887191,35.1766324 C205.426813,34.1357384 205.088359,33.927368 204.370979,33.7386371 C204.068444,33.6634322 203.751239,33.6634322 203.58783,33.6634322 C203.579735,33.6634322 203.575688,33.6615161 203.566582,33.6615161 C203.552922,33.6615161 203.545333,33.6634322 203.52965,33.6634322 C203.328804,33.6634322 203.169948,33.6821137 202.931158,33.7189976 C202.389835,33.8138421 202.229967,34.1357384 202.19,34.7982126 C202.151045,35.4051213 202.151045,35.93443 202.151045,38.8108996 L202.151045,42.1395568 C202.151045,43.9760904 202.151045,45.4706091 202.229967,46.2844512 C202.29017,46.7945994 202.431319,47.1351772 203.029811,47.2103822 C203.310085,47.2482242 203.748709,47.2870242 204.04922,47.2870242 C204.270809,47.2870242 204.370979,47.3440267 204.370979,47.4383921 C204.370979,47.5701205 204.208582,47.626644 203.989522,47.626644 C202.670109,47.626644 201.410898,47.5701205 200.871598,47.5701205 C200.412738,47.5701205 199.153021,47.626644 198.354189,47.626644 C198.094657,47.626644 197.953002,47.5701205 197.953002,47.4383921 C197.953002,47.3440267 198.035466,47.2870242 198.271726,47.2870242 C198.57426,47.2870242 198.814061,47.2482242 198.993154,47.2103822 C199.392823,47.1351772 199.512723,46.8132809 199.572421,46.2652907 C199.672085,45.4706091 199.672085,43.9760904 199.672085,42.1395568 L199.672085,38.8108996 C199.672085,35.93443 199.672085,35.4051213 199.631612,34.7982126 C199.591139,34.1548989 199.392823,33.8330026 198.955716,33.7386371 C198.733116,33.6821137 198.473078,33.6634322 198.234794,33.6634322 C198.035466,33.6634322 197.91253,33.6251112 197.91253,33.4727852 C197.91253,33.3602173 198.072903,33.3223754 198.393144,33.3223754 C199.153021,33.3223754 200.412738,33.3788988 200.991499,33.3788988 C201.49235,33.3788988 202.670109,33.3223754 203.429986,33.3223754 C203.501825,33.3223754 203.566582,33.3262075 203.622232,33.3324346 C203.694577,33.3262075 203.777546,33.3223754 203.869116,33.3223754 C204.929504,33.3223754 206.067801,33.3788988 206.767981,33.3788988 C207.265291,33.3788988 208.225002,33.3223754 209.226704,33.3223754 C209.463976,33.3223754 209.685565,33.3602173 209.685565,33.4938618 C209.685565,33.6251112 209.56617,33.6634322 209.384043,33.6634322 C209.065319,33.6634322 208.767338,33.6821137 208.605953,33.7951606 C208.466827,33.889047 208.407636,34.0207754 208.407636,34.1917829 C208.407636,34.4394323 208.585716,34.967783 208.866496,35.6498967 L212.304156,44.2390682 L212.383584,44.2390682 C213.243125,42.1596753 215.839456,36.0656794 216.3226,34.8173731 C216.420747,34.5706817 216.500681,34.2871063 216.500681,34.1165779 C216.500681,33.966647 216.420747,33.8138421 216.239125,33.7568396 C216.001348,33.6821137 215.700331,33.6634322 215.442823,33.6634322 C215.260189,33.6634322 215.099816,33.6447507 215.099816,33.5111062 C215.099816,33.3602173 215.281437,33.3223754 215.658846,33.3223754 C216.659537,33.3223754 217.498842,33.3788988 217.758374,33.3788988 C218.098851,33.3788988 219.036809,33.3223754 219.638842,33.3223754 C219.732435,33.3223754 219.806804,33.3305186 219.873584,33.3429729 C219.940364,33.3305186 220.020298,33.3223754 220.129574,33.3223754 C220.668369,33.3223754 221.248142,33.3420149 221.749499,33.3420149 C222.268057,33.3602173 222.726411,33.3788988 223.007697,33.3788988 C223.646662,33.3788988 227.623622,33.3788988 228.00356,33.3602173 C228.382487,33.3223754 228.704246,33.2830963 228.863102,33.2471704 C228.961754,33.2280099 229.081655,33.1695704 229.182331,33.1695704 C229.283007,33.1695704 229.301726,33.2471704 229.301726,33.3420149 C229.301726,33.4727852 229.203073,33.7007952 229.141352,34.5706817 C229.123645,34.7608496 229.081655,35.5924152 229.041182,35.8209041 C229.020946,35.9152695 228.981991,36.0287955 228.842865,36.0287955 C228.704246,36.0287955 228.662761,35.93443 228.662761,35.7624646 C228.662761,35.6302572 228.642019,35.3093188 228.542355,35.082746 C228.402723,34.7416891 228.203395,34.5146372 227.204222,34.4015903 C226.863745,34.3632693 224.765735,34.3263854 224.36556,34.3263854 C224.264378,34.3263854 224.226941,34.3829088 224.226941,34.5146372 L224.226941,39.3009293 C224.226941,39.4340947 224.244648,39.5092997 224.36556,39.5092997 C224.806208,39.5092997 227.105064,39.5092997 227.56443,39.4714577 C228.042515,39.4340947 228.343532,39.3775712 228.522624,39.1878823 C228.662761,39.0369934 228.743201,38.942628 228.842865,38.942628 C228.924317,38.942628 228.981991,38.98047 228.981991,39.0930379 C228.981991,39.2060848 228.902563,39.5092997 228.821617,40.4759467 C228.80391,40.8538875 228.743201,41.6102481 228.743201,41.7424555 C228.743201,41.8938234 228.743201,42.1026729 228.564109,42.1026729 C228.423466,42.1026729 228.382487,42.0265099 228.382487,41.9331025 C228.362757,41.7424555 228.362757,41.4967222 228.303565,41.2514678 C228.203395,40.873048 227.922615,40.5885146 227.184492,40.5128307 C226.804553,40.4759467 224.826444,40.4567862 224.34583,40.4567862 C224.244648,40.4567862 224.226941,40.5315121 224.226941,40.6455171 L224.226941,42.1395568 C224.226941,42.7838285 224.20721,44.5236016 224.226941,45.0744658 C224.264378,46.3788166 224.587149,46.66335 226.623437,46.66335 C227.144019,46.66335 227.98383,46.66335 228.501882,46.4348611 C229.020946,46.2092463 229.262771,45.812624 229.402908,45.0356658 C229.440851,44.8268164 229.48183,44.7511325 229.622473,44.7511325 Z M251.259239,38.9991514 C253.676983,40.720722 254.536525,42.0265099 254.536525,43.8232854 C254.536525,44.9207029 254.096383,46.2279277 252.656563,47.1169748 C251.659414,47.7229255 250.54034,47.8924959 249.480965,47.8924959 C248.34469,47.8924959 247.458336,47.7622045 246.614478,47.4192316 C246.614478,47.4259378 246.618019,47.4312069 246.618019,47.4383921 C246.618019,47.589281 246.478894,47.626644 246.239598,47.626644 L244.341423,47.626644 C243.221844,47.626644 242.720993,47.5332366 242.200411,47.2693007 C241.341376,46.8314834 240.582511,45.9443524 239.462931,44.4862386 C238.664099,43.4463027 237.745872,42.1591963 237.485835,41.8741839 C237.387182,41.762095 237.265764,41.7424555 237.126638,41.7424555 L235.388837,41.7060506 C235.286137,41.7060506 235.226946,41.7424555 235.226946,41.8555024 L235.226946,42.1213543 C235.226946,43.8798089 235.226946,45.3762437 235.32661,46.1694882 C235.388837,46.7193945 235.507726,47.1351772 236.106723,47.2103822 C236.406222,47.2482242 236.846364,47.2870242 237.084648,47.2870242 C237.245527,47.2870242 237.325461,47.3440267 237.325461,47.4383921 C237.325461,47.5701205 237.186336,47.626644 236.925792,47.626644 C235.76574,47.626644 234.289494,47.5701205 233.988478,47.5701205 C233.608033,47.5701205 232.35034,47.626644 231.549991,47.626644 C231.287929,47.626644 231.150827,47.5701205 231.150827,47.4383921 C231.150827,47.3440267 231.229243,47.2870242 231.470563,47.2870242 C231.769556,47.2870242 232.009357,47.2482242 232.191485,47.2103822 C232.590142,47.1351772 232.688794,46.7193945 232.768728,46.1694882 C232.868898,45.3762437 232.868898,43.8798089 232.868898,42.1395568 L232.868898,38.8108996 C232.868898,35.93443 232.868898,35.4046423 232.828931,34.7982126 C232.788965,34.1548989 232.630109,33.8531211 231.968884,33.7189976 C231.809522,33.6821137 231.470563,33.6634322 231.188771,33.6634322 C230.971735,33.6634322 230.851835,33.6251112 230.851835,33.4938618 C230.851835,33.3602173 230.990454,33.3223754 231.287929,33.3223754 C232.35034,33.3223754 233.608033,33.3788988 234.027433,33.3788988 C234.7094,33.3788988 236.225106,33.3223754 236.846364,33.3223754 C238.106586,33.3223754 239.442695,33.4349433 240.524331,34.1357384 C241.081844,34.4959558 241.883206,35.4611658 241.883206,36.7281536 C241.883206,38.1297439 241.262454,39.4158922 239.243872,40.9669344 C241.024676,43.0875224 242.402775,44.770772 243.580028,45.9443524 C244.701631,47.0408118 245.5207,47.1730192 245.817669,47.2290637 C246.025092,47.2649896 246.195584,47.281755 246.346345,47.2841501 C246.214303,47.1840365 246.181924,47.0542241 246.181924,46.7577155 C246.181924,45.7149054 246.264388,44.580125 246.284118,44.2793052 C246.303343,43.9942929 246.36304,43.7854435 246.521896,43.7854435 C246.703518,43.7854435 246.721225,43.9574089 246.721225,44.1068608 C246.721225,44.3535522 246.802676,44.7511325 246.90234,45.0744658 C247.340965,46.4746191 248.520747,46.9847673 249.760227,46.9847673 C251.559749,46.9847673 252.435986,45.8308264 252.435986,44.8268164 C252.435986,43.9004064 252.136993,43.0305199 250.479125,41.799458 L249.561404,41.1178233 C247.361201,39.4910972 246.601324,38.1661489 246.601324,36.6328301 C246.601324,34.5515212 248.441825,33.0565235 251.219272,33.0565235 C252.516931,33.0565235 253.356236,33.2471704 253.8753,33.3788988 C254.056416,33.4167408 254.156586,33.4727852 254.156586,33.6064297 C254.156586,33.8531211 254.077664,34.4015903 254.077664,35.8769485 C254.077664,36.2941684 254.016449,36.4445782 253.856582,36.4445782 C253.717456,36.4445782 253.657253,36.3310523 253.657253,36.1040004 C253.657253,35.93443 253.555565,35.3471608 253.136165,34.8547361 C252.836161,34.4959558 252.2574,33.927368 250.957716,33.927368 C249.480965,33.927368 248.58095,34.7416891 248.58095,35.8769485 C248.58095,36.7473141 249.039305,37.4102673 250.700208,38.6020501 L251.259239,38.9991514 Z M238.342846,40.5128307 C237.984662,40.758085 237.723106,40.835206 236.925792,40.835206 C236.426459,40.835206 235.826449,40.7772455 235.407556,40.6455171 C235.265901,40.5885146 235.226946,40.5128307 235.226946,40.3049393 L235.226946,34.5515212 C235.226946,34.4015903 235.265901,34.3263854 235.407556,34.2871063 C235.60739,34.2301039 235.967598,34.2123804 236.466426,34.2123804 C237.645702,34.2123804 239.522123,34.9874225 239.522123,37.6742031 C239.522123,39.2281194 238.944879,40.0975269 238.342846,40.5128307 Z M262.181839,47.2870242 C262.40191,47.2870242 262.501069,47.3435476 262.501069,47.4383921 C262.501069,47.5701205 262.342213,47.626644 262.12113,47.626644 C260.801716,47.626644 259.542506,47.5701205 259.003206,47.5701205 C258.544345,47.5701205 257.285641,47.626644 256.485797,47.626644 C256.224747,47.626644 256.087139,47.5701205 256.087139,47.4383921 C256.087139,47.3435476 256.164038,47.2870242 256.406875,47.2870242 C256.706879,47.2870242 256.946175,47.2482242 257.125267,47.2103822 C257.525948,47.1351772 257.646355,46.8132809 257.70504,46.2652907 C257.80774,45.4706091 257.80774,43.9756114 257.80774,42.1395568 L257.80774,38.8108996 C257.80774,35.93443 257.80774,35.4046423 257.765243,34.7982126 C257.725277,34.1548989 257.525948,33.8330026 257.087324,33.7386371 C256.866241,33.6821137 256.605697,33.6634322 256.36792,33.6634322 C256.164038,33.6634322 256.044137,33.6251112 256.044137,33.4727852 C256.044137,33.3602173 256.207546,33.3223754 256.525764,33.3223754 C257.285641,33.3223754 258.544345,33.3788988 259.124624,33.3788988 C259.624463,33.3788988 260.801716,33.3223754 261.563617,33.3223754 C261.820619,33.3223754 261.982511,33.3602173 261.982511,33.4727852 C261.982511,33.6251112 261.863622,33.6634322 261.66227,33.6634322 C261.463953,33.6634322 261.302061,33.6821137 261.063272,33.7189976 C260.522454,33.8138421 260.362586,34.1357384 260.322113,34.7982126 C260.282147,35.4046423 260.282147,35.93443 260.282147,38.8108996 L260.282147,42.1395568 C260.282147,43.9756114 260.282147,45.4706091 260.362586,46.2844512 C260.423801,46.7945994 260.562927,47.1351772 261.164454,47.2103822 C261.443716,47.2482242 261.880823,47.2870242 262.181839,47.2870242 Z M290.64131,33.3223754 C290.861381,33.3223754 291,33.3602173 291,33.4727852 C291,33.6073877 290.842156,33.6634322 290.620567,33.6634322 C290.422757,33.6634322 290.042312,33.7386371 289.74079,33.889047 C289.32139,34.079694 289.100813,34.3077039 288.664719,34.8173731 C288.002988,35.5746917 285.206317,40.0218429 284.846615,40.835206 C284.545092,41.5149246 284.545092,42.1026729 284.545092,42.727784 L284.545092,44.2793052 C284.545092,44.580125 284.545092,45.3762437 284.605296,46.1694882 C284.647792,46.7193945 284.826884,47.1351772 285.425376,47.2103822 C285.704132,47.2482242 286.145286,47.2870242 286.424548,47.2870242 C286.645125,47.2870242 286.743778,47.3440267 286.743778,47.4383921 C286.743778,47.5701205 286.58391,47.626644 286.324378,47.626644 C285.067191,47.626644 283.807475,47.5701205 283.267163,47.5701205 C282.768336,47.5701205 281.508619,47.626644 280.768473,47.626644 C280.488704,47.626644 280.329849,47.589281 280.329849,47.4383921 C280.329849,47.3440267 280.429513,47.2870242 280.649584,47.2870242 C280.928846,47.2870242 281.167636,47.2482242 281.348752,47.2103822 C281.748927,47.1351772 281.929031,46.7193945 281.967986,46.1694882 C282.028189,45.3762437 282.028189,44.580125 282.028189,44.2793052 L282.028189,42.727784 C282.028189,41.7060506 281.828861,41.2883518 281.567811,40.7408406 C281.427168,40.4357097 278.751409,36.2750079 278.051229,35.2901583 C277.703163,34.8020447 277.356615,34.4317681 277.047504,34.1769335 C276.822374,34.0107162 276.019494,33.4747013 275.995716,34.2229187 C275.976998,34.7661188 275.950184,35.4525435 275.950184,35.7830621 C275.930454,35.971793 275.891499,36.0843609 275.770586,36.0843609 C275.611225,36.0843609 275.571258,35.9899955 275.551021,35.7059411 L275.530785,35.4994868 C275.491324,35.005625 274.953541,34.4758372 273.172232,34.4394323 L270.655329,34.3829088 L270.655329,42.1395568 C270.655329,43.8798089 270.655329,45.3762437 270.753475,46.1886487 C270.814184,46.7193945 270.935603,47.1351772 271.533589,47.2103822 C271.814369,47.2482242 272.254005,47.2870242 272.554009,47.2870242 C272.773574,47.2870242 272.872733,47.3440267 272.872733,47.4383921 C272.872733,47.5701205 272.713371,47.626644 272.496336,47.626644 C271.173381,47.626644 269.915182,47.5701205 269.356151,47.5701205 C268.895773,47.5701205 267.637574,47.626644 266.836719,47.626644 C266.577187,47.626644 266.439073,47.5701205 266.439073,47.4383921 C266.439073,47.3440267 266.519007,47.2870242 266.756279,47.2870242 C267.057801,47.2870242 267.297097,47.2482242 267.478213,47.2103822 C267.877882,47.1351772 267.997277,46.7193945 268.056974,46.1694882 C268.157144,45.3762437 268.157144,43.8798089 268.157144,42.1395568 L268.157144,34.3829088 L265.180369,34.4576348 C264.021329,34.4959558 263.539702,34.5912792 263.242227,35.005625 C263.039863,35.2901583 262.940199,35.5176892 262.901243,35.6685781 C262.860771,35.8209041 262.79905,35.896109 262.681678,35.896109 C262.541035,35.896109 262.501069,35.8017436 262.501069,35.5924152 C262.501069,35.2901583 262.881007,33.5695458 262.919962,33.4167408 C262.982189,33.1695704 263.039863,33.0565235 263.160775,33.0565235 C263.318619,33.0565235 263.520983,33.2471704 264.021329,33.2830963 C264.598572,33.3420149 265.359461,33.3788988 266.019674,33.3788988 L273.933121,33.3788988 C274.068199,33.3788988 274.189111,33.3750667 274.306988,33.3717136 C274.328236,33.3717136 274.347967,33.3702766 274.369721,33.3702766 C274.371745,33.3688396 274.373768,33.3688396 274.37731,33.3688396 C274.865513,33.3530321 275.329939,33.3453679 275.721007,33.3420149 L275.994199,33.3420149 C276.510227,33.3400988 276.847669,33.3453679 276.847669,33.3453679 C277.403158,33.3602173 278.054771,33.3788988 278.430156,33.3788988 C278.850061,33.3788988 279.66913,33.3223754 280.568638,33.3223754 C280.768473,33.3223754 280.871173,33.3788988 280.871173,33.4938618 C280.871173,33.6064297 280.728506,33.6251112 280.429513,33.7007952 C280.248903,33.7386371 280.149239,33.889047 280.149239,34.042331 C280.149239,34.1917829 280.248903,34.4197928 280.390558,34.6856447 C280.66982,35.2527954 283.468515,39.8120355 283.788251,40.3418232 C283.986567,39.8886775 286.504482,35.7274967 286.784757,35.1392694 C286.983579,34.7234867 287.064019,34.4015903 287.064019,34.1548989 C287.064019,33.966168 286.983579,33.7568396 286.645125,33.6821137 C286.465021,33.6447507 286.284917,33.6064297 286.284917,33.4938618 C286.284917,33.3602173 286.385593,33.3223754 286.623877,33.3223754 C287.283584,33.3223754 287.92356,33.3788988 288.502322,33.3788988 C288.942969,33.3788988 290.263395,33.3223754 290.64131,33.3223754 Z M309,21 L310,21 L310,61 L309,61 L309,21 Z M337.188477,43.7373047 C337.088867,45.1142647 336.580571,46.1982382 335.663574,46.9892578 C334.746577,47.7802774 333.538093,48.1757812 332.038086,48.1757812 C330.397453,48.1757812 329.106938,47.6235407 328.166504,46.519043 C327.22607,45.4145453 326.755859,43.8984471 326.755859,41.9707031 L326.755859,41.1884766 C326.755859,39.9580017 326.972654,38.8740281 327.40625,37.9365234 C327.839846,36.9990188 328.459469,36.2797877 329.265137,35.7788086 C330.070805,35.2778295 331.006831,35.0273438 332.073242,35.0273438 C333.549812,35.0273438 334.739253,35.4228476 335.641602,36.2138672 C336.54395,37.0048868 337.065429,38.1152272 337.206055,39.5449219 L334.569336,39.5449219 C334.504882,38.7187459 334.274904,38.1196308 333.879395,37.7475586 C333.483885,37.3754864 332.88184,37.1894531 332.073242,37.1894531 C331.194332,37.1894531 330.536623,37.5043914 330.100098,38.1342773 C329.663572,38.7641633 329.439453,39.7412043 329.427734,41.0654297 L329.427734,42.0322266 C329.427734,43.415046 329.637205,44.4257781 330.056152,45.0644531 C330.4751,45.7031282 331.135738,46.0224609 332.038086,46.0224609 C332.852543,46.0224609 333.460447,45.8364276 333.861816,45.4643555 C334.263186,45.0922833 334.493164,44.5166055 334.551758,43.7373047 L337.188477,43.7373047 Z M338.357422,43.1572266 C338.357422,42.2138625 338.539061,41.3730506 338.902344,40.6347656 C339.265627,39.8964807 339.788571,39.3251973 340.471191,38.9208984 C341.153812,38.5165995 341.946285,38.3144531 342.848633,38.3144531 C344.131842,38.3144531 345.179195,38.7070273 345.990723,39.4921875 C346.80225,40.2773477 347.254882,41.3437433 347.348633,42.6914062 L347.366211,43.3417969 C347.366211,44.8007885 346.958988,45.971187 346.144531,46.8530273 C345.330074,47.7348677 344.237312,48.1757812 342.866211,48.1757812 C341.49511,48.1757812 340.400883,47.7363325 339.583496,46.8574219 C338.766109,45.9785112 338.357422,44.7832107 338.357422,43.2714844 L338.357422,43.1572266 Z M340.897461,43.3417969 C340.897461,42.3281199 341.067381,41.5795923 341.407227,41.0961914 C341.747072,40.6127906 342.227536,40.3710938 342.848633,40.3710938 C343.475589,40.3710938 343.961912,40.6142554 344.307617,41.1005859 C344.653322,41.5869165 344.826172,42.2724565 344.826172,43.1572266 C344.826172,44.1943411 344.653322,44.9487281 344.307617,45.4204102 C343.961912,45.8920922 343.481448,46.1279297 342.866211,46.1279297 C342.233395,46.1279297 341.747072,45.8891625 341.407227,45.4116211 C341.067381,44.9340796 340.897461,44.2441451 340.897461,43.3417969 Z M354.625977,47.0332031 C353.99902,47.7949257 353.131841,48.1757812 352.024414,48.1757812 C351.004878,48.1757812 350.227053,47.8828154 349.690918,47.296875 C349.154782,46.7109346 348.880859,45.8525447 348.869141,44.7216797 L348.869141,38.4902344 L351.40918,38.4902344 L351.40918,44.6337891 C351.40918,45.6240284 351.860347,46.1191406 352.762695,46.1191406 C353.624028,46.1191406 354.215819,45.8203155 354.538086,45.2226562 L354.538086,38.4902344 L357.086914,38.4902344 L357.086914,48 L354.696289,48 L354.625977,47.0332031 Z M364.34668,40.8720703 C364.000975,40.8251951 363.69629,40.8017578 363.432617,40.8017578 C362.471675,40.8017578 361.841798,41.1269499 361.542969,41.7773438 L361.542969,48 L359.00293,48 L359.00293,38.4902344 L361.402344,38.4902344 L361.472656,39.6240234 C361.982424,38.7509722 362.688472,38.3144531 363.59082,38.3144531 C363.872072,38.3144531 364.135741,38.3525387 364.381836,38.4287109 L364.34668,40.8720703 Z M370.71875,45.3720703 C370.71875,45.0615219 370.564943,44.8168954 370.257324,44.6381836 C369.949705,44.4594718 369.456058,44.2998054 368.776367,44.1591797 C366.514637,43.6845679 365.383789,42.72364 365.383789,41.2763672 C365.383789,40.432613 365.733883,39.7280302 366.434082,39.1625977 C367.134281,38.5971651 368.049799,38.3144531 369.180664,38.3144531 C370.387701,38.3144531 371.353024,38.59863 372.07666,39.1669922 C372.800297,39.7353544 373.162109,40.4736283 373.162109,41.3818359 L370.62207,41.3818359 C370.62207,41.0185529 370.504884,40.7182629 370.270508,40.480957 C370.036132,40.2436512 369.669924,40.125 369.171875,40.125 C368.744138,40.125 368.413087,40.2216787 368.178711,40.4150391 C367.944335,40.6083994 367.827148,40.8544907 367.827148,41.1533203 C367.827148,41.4345717 367.960448,41.6616202 368.227051,41.8344727 C368.493654,42.0073251 368.943356,42.1567377 369.576172,42.2827148 C370.208988,42.408692 370.742185,42.5507805 371.175781,42.7089844 C372.517585,43.2011743 373.188477,44.0537049 373.188477,45.2666016 C373.188477,46.1337934 372.81641,46.8354465 372.072266,47.371582 C371.328121,47.9077175 370.367193,48.1757812 369.189453,48.1757812 C368.392574,48.1757812 367.685062,48.0336928 367.066895,47.7495117 C366.448727,47.4653306 365.963869,47.0756861 365.612305,46.5805664 C365.26074,46.0854467 365.084961,45.5507841 365.084961,44.9765625 L367.493164,44.9765625 C367.516602,45.4277366 367.683592,45.7734363 367.994141,46.0136719 C368.304689,46.2539075 368.720701,46.3740234 369.242188,46.3740234 C369.728518,46.3740234 370.09619,46.2817392 370.345215,46.097168 C370.59424,45.9125967 370.71875,45.6708999 370.71875,45.3720703 Z M379.200195,48.1757812 C377.805657,48.1757812 376.670415,47.7480512 375.794434,46.8925781 C374.918453,46.0371051 374.480469,44.8974681 374.480469,43.4736328 L374.480469,43.2275391 C374.480469,42.2724562 374.665037,41.4184608 375.03418,40.6655273 C375.403322,39.9125939 375.926266,39.3325216 376.603027,38.925293 C377.279789,38.5180644 378.051753,38.3144531 378.918945,38.3144531 C380.219733,38.3144531 381.243649,38.7246053 381.990723,39.5449219 C382.737797,40.3652385 383.111328,41.5283128 383.111328,43.0341797 L383.111328,44.0712891 L377.055664,44.0712891 C377.137696,44.6923859 377.385252,45.1904278 377.79834,45.5654297 C378.211428,45.9404316 378.734372,46.1279297 379.367188,46.1279297 C380.345708,46.1279297 381.110349,45.773441 381.661133,45.0644531 L382.90918,46.4619141 C382.528318,47.0009793 382.012699,47.4213852 381.362305,47.7231445 C380.711911,48.0249039 379.991215,48.1757812 379.200195,48.1757812 Z M378.910156,40.3710938 C379.449221,40.3710938 379.865233,40.5249008 380.158203,40.8325195 C380.451173,41.1401383 380.603516,41.5751925 380.615234,42.1376953 L380.615234,42.3398438 L377.082031,42.3398438 C377.169922,41.7070281 377.370604,41.2207048 377.684082,40.8808594 C377.99756,40.5410139 378.406247,40.3710938 378.910156,40.3710938 Z M389.703125,45.3720703 C389.703125,45.0615219 389.549318,44.8168954 389.241699,44.6381836 C388.93408,44.4594718 388.440433,44.2998054 387.760742,44.1591797 C385.499012,43.6845679 384.368164,42.72364 384.368164,41.2763672 C384.368164,40.432613 384.718258,39.7280302 385.418457,39.1625977 C386.118656,38.5971651 387.034174,38.3144531 388.165039,38.3144531 C389.372076,38.3144531 390.337399,38.59863 391.061035,39.1669922 C391.784672,39.7353544 392.146484,40.4736283 392.146484,41.3818359 L389.606445,41.3818359 C389.606445,41.0185529 389.489259,40.7182629 389.254883,40.480957 C389.020507,40.2436512 388.654299,40.125 388.15625,40.125 C387.728513,40.125 387.397462,40.2216787 387.163086,40.4150391 C386.92871,40.6083994 386.811523,40.8544907 386.811523,41.1533203 C386.811523,41.4345717 386.944823,41.6616202 387.211426,41.8344727 C387.478029,42.0073251 387.927731,42.1567377 388.560547,42.2827148 C389.193363,42.408692 389.72656,42.5507805 390.160156,42.7089844 C391.50196,43.2011743 392.172852,44.0537049 392.172852,45.2666016 C392.172852,46.1337934 391.800785,46.8354465 391.056641,47.371582 C390.312496,47.9077175 389.351568,48.1757812 388.173828,48.1757812 C387.376949,48.1757812 386.669437,48.0336928 386.05127,47.7495117 C385.433102,47.4653306 384.948244,47.0756861 384.59668,46.5805664 C384.245115,46.0854467 384.069336,45.5507841 384.069336,44.9765625 L386.477539,44.9765625 C386.500977,45.4277366 386.667967,45.7734363 386.978516,46.0136719 C387.289064,46.2539075 387.705076,46.3740234 388.226562,46.3740234 C388.712893,46.3740234 389.080565,46.2817392 389.32959,46.097168 C389.578615,45.9125967 389.703125,45.6708999 389.703125,45.3720703 Z" id="Combined-Shape"></path>
            </g>
        </g>
    </g>
</svg>