<?xml version="1.0" encoding="UTF-8"?>
<svg viewBox="0 0 137 40" version="1.1" xmlns="http://www.w3.org/2000/svg" xmlns:xlink="http://www.w3.org/1999/xlink">
    <!-- Generator: Sketch 47.1 (45422) - http://www.bohemiancoding.com/sketch -->
    <title>logo_mobile@2x</title>
    <desc>Created with Sketch.</desc>
    <defs></defs>
    <g id="Page-1" stroke="none" stroke-width="1" fill="none" fill-rule="evenodd">
        <path d="M81.1884766,22.7373047 C81.0888667,24.1142647 80.580571,25.1982382 79.6635742,25.9892578 C78.7465774,26.7802774 77.5380934,27.1757812 76.0380859,27.1757812 C74.3974527,27.1757812 73.1069383,26.6235407 72.1665039,25.519043 C71.2260695,24.4145453 70.7558594,22.8984471 70.7558594,20.9707031 L70.7558594,20.1884766 C70.7558594,18.9580017 70.9726541,17.8740281 71.40625,16.9365234 C71.8398459,15.9990188 72.4594686,15.2797877 73.2651367,14.7788086 C74.0708048,14.2778295 75.0068306,14.0273438 76.0732422,14.0273438 C77.5498121,14.0273438 78.7392533,14.4228476 79.6416016,15.2138672 C80.5439498,16.0048868 81.065429,17.1152272 81.2060547,18.5449219 L78.5693359,18.5449219 C78.5048825,17.7187459 78.2749043,17.1196308 77.8793945,16.7475586 C77.4838847,16.3754864 76.88184,16.1894531 76.0732422,16.1894531 C75.1943315,16.1894531 74.5366233,16.5043914 74.1000977,17.1342773 C73.663572,17.7641633 73.4394532,18.7412043 73.4277344,20.0654297 L73.4277344,21.0322266 C73.4277344,22.415046 73.6372049,23.4257781 74.0561523,24.0644531 C74.4750998,24.7031282 75.1357377,25.0224609 76.0380859,25.0224609 C76.8525431,25.0224609 77.4604472,24.8364276 77.8618164,24.4643555 C78.2631856,24.0922833 78.4931638,23.5166055 78.5517578,22.7373047 L81.1884766,22.7373047 Z M82.3574219,22.1572266 C82.3574219,21.2138625 82.5390607,20.3730506 82.9023438,19.6347656 C83.2656268,18.8964807 83.7885708,18.3251973 84.4711914,17.9208984 C85.153812,17.5165995 85.9462846,17.3144531 86.8486328,17.3144531 C88.1318424,17.3144531 89.1791952,17.7070273 89.9907227,18.4921875 C90.8022502,19.2773477 91.2548823,20.3437433 91.3486328,21.6914062 L91.3662109,22.3417969 C91.3662109,23.8007885 90.9589884,24.971187 90.1445312,25.8530273 C89.3300741,26.7348677 88.2373115,27.1757812 86.8662109,27.1757812 C85.4951103,27.1757812 84.400883,26.7363325 83.5834961,25.8574219 C82.7661092,24.9785112 82.3574219,23.7832107 82.3574219,22.2714844 L82.3574219,22.1572266 Z M84.8974609,22.3417969 C84.8974609,21.3281199 85.0673811,20.5795923 85.4072266,20.0961914 C85.747072,19.6127906 86.227536,19.3710938 86.8486328,19.3710938 C87.4755891,19.3710938 87.9619123,19.6142554 88.3076172,20.1005859 C88.653322,20.5869165 88.8261719,21.2724565 88.8261719,22.1572266 C88.8261719,23.1943411 88.653322,23.9487281 88.3076172,24.4204102 C87.9619123,24.8920922 87.4814484,25.1279297 86.8662109,25.1279297 C86.2333953,25.1279297 85.747072,24.8891625 85.4072266,24.4116211 C85.0673811,23.9340796 84.8974609,23.2441451 84.8974609,22.3417969 Z M98.6259766,26.0332031 C97.9990203,26.7949257 97.1318415,27.1757812 96.0244141,27.1757812 C95.0048777,27.1757812 94.2270535,26.8828154 93.690918,26.296875 C93.1547825,25.7109346 92.8808594,24.8525447 92.8691406,23.7216797 L92.8691406,17.4902344 L95.4091797,17.4902344 L95.4091797,23.6337891 C95.4091797,24.6240284 95.8603471,25.1191406 96.7626953,25.1191406 C97.6240277,25.1191406 98.2158187,24.8203155 98.5380859,24.2226562 L98.5380859,17.4902344 L101.086914,17.4902344 L101.086914,27 L98.6962891,27 L98.6259766,26.0332031 Z M108.34668,19.8720703 C108.000975,19.8251951 107.69629,19.8017578 107.432617,19.8017578 C106.471675,19.8017578 105.841798,20.1269499 105.542969,20.7773438 L105.542969,27 L103.00293,27 L103.00293,17.4902344 L105.402344,17.4902344 L105.472656,18.6240234 C105.982424,17.7509722 106.688472,17.3144531 107.59082,17.3144531 C107.872072,17.3144531 108.135741,17.3525387 108.381836,17.4287109 L108.34668,19.8720703 Z M114.71875,24.3720703 C114.71875,24.0615219 114.564943,23.8168954 114.257324,23.6381836 C113.949705,23.4594718 113.456058,23.2998054 112.776367,23.1591797 C110.514637,22.6845679 109.383789,21.72364 109.383789,20.2763672 C109.383789,19.432613 109.733883,18.7280302 110.434082,18.1625977 C111.134281,17.5971651 112.049799,17.3144531 113.180664,17.3144531 C114.387701,17.3144531 115.353024,17.59863 116.07666,18.1669922 C116.800297,18.7353544 117.162109,19.4736283 117.162109,20.3818359 L114.62207,20.3818359 C114.62207,20.0185529 114.504884,19.7182629 114.270508,19.480957 C114.036132,19.2436512 113.669924,19.125 113.171875,19.125 C112.744138,19.125 112.413087,19.2216787 112.178711,19.4150391 C111.944335,19.6083994 111.827148,19.8544907 111.827148,20.1533203 C111.827148,20.4345717 111.960448,20.6616202 112.227051,20.8344727 C112.493654,21.0073251 112.943356,21.1567377 113.576172,21.2827148 C114.208988,21.408692 114.742185,21.5507805 115.175781,21.7089844 C116.517585,22.2011743 117.188477,23.0537049 117.188477,24.2666016 C117.188477,25.1337934 116.81641,25.8354465 116.072266,26.371582 C115.328121,26.9077175 114.367193,27.1757812 113.189453,27.1757812 C112.392574,27.1757812 111.685062,27.0336928 111.066895,26.7495117 C110.448727,26.4653306 109.963869,26.0756861 109.612305,25.5805664 C109.26074,25.0854467 109.084961,24.5507841 109.084961,23.9765625 L111.493164,23.9765625 C111.516602,24.4277366 111.683592,24.7734363 111.994141,25.0136719 C112.304689,25.2539075 112.720701,25.3740234 113.242188,25.3740234 C113.728518,25.3740234 114.09619,25.2817392 114.345215,25.097168 C114.59424,24.9125967 114.71875,24.6708999 114.71875,24.3720703 Z M123.200195,27.1757812 C121.805657,27.1757812 120.670415,26.7480512 119.794434,25.8925781 C118.918453,25.0371051 118.480469,23.8974681 118.480469,22.4736328 L118.480469,22.2275391 C118.480469,21.2724562 118.665037,20.4184608 119.03418,19.6655273 C119.403322,18.9125939 119.926266,18.3325216 120.603027,17.925293 C121.279789,17.5180644 122.051753,17.3144531 122.918945,17.3144531 C124.219733,17.3144531 125.243649,17.7246053 125.990723,18.5449219 C126.737797,19.3652385 127.111328,20.5283128 127.111328,22.0341797 L127.111328,23.0712891 L121.055664,23.0712891 C121.137696,23.6923859 121.385252,24.1904278 121.79834,24.5654297 C122.211428,24.9404316 122.734372,25.1279297 123.367188,25.1279297 C124.345708,25.1279297 125.110349,24.773441 125.661133,24.0644531 L126.90918,25.4619141 C126.528318,26.0009793 126.012699,26.4213852 125.362305,26.7231445 C124.711911,27.0249039 123.991215,27.1757812 123.200195,27.1757812 Z M122.910156,19.3710938 C123.449221,19.3710938 123.865233,19.5249008 124.158203,19.8325195 C124.451173,20.1401383 124.603516,20.5751925 124.615234,21.1376953 L124.615234,21.3398438 L121.082031,21.3398438 C121.169922,20.7070281 121.370604,20.2207048 121.684082,19.8808594 C121.99756,19.5410139 122.406247,19.3710938 122.910156,19.3710938 Z M133.703125,24.3720703 C133.703125,24.0615219 133.549318,23.8168954 133.241699,23.6381836 C132.93408,23.4594718 132.440433,23.2998054 131.760742,23.1591797 C129.499012,22.6845679 128.368164,21.72364 128.368164,20.2763672 C128.368164,19.432613 128.718258,18.7280302 129.418457,18.1625977 C130.118656,17.5971651 131.034174,17.3144531 132.165039,17.3144531 C133.372076,17.3144531 134.337399,17.59863 135.061035,18.1669922 C135.784672,18.7353544 136.146484,19.4736283 136.146484,20.3818359 L133.606445,20.3818359 C133.606445,20.0185529 133.489259,19.7182629 133.254883,19.480957 C133.020507,19.2436512 132.654299,19.125 132.15625,19.125 C131.728513,19.125 131.397462,19.2216787 131.163086,19.4150391 C130.92871,19.6083994 130.811523,19.8544907 130.811523,20.1533203 C130.811523,20.4345717 130.944823,20.6616202 131.211426,20.8344727 C131.478029,21.0073251 131.927731,21.1567377 132.560547,21.2827148 C133.193363,21.408692 133.72656,21.5507805 134.160156,21.7089844 C135.50196,22.2011743 136.172852,23.0537049 136.172852,24.2666016 C136.172852,25.1337934 135.800785,25.8354465 135.056641,26.371582 C134.312496,26.9077175 133.351568,27.1757812 132.173828,27.1757812 C131.376949,27.1757812 130.669437,27.0336928 130.05127,26.7495117 C129.433102,26.4653306 128.948244,26.0756861 128.59668,25.5805664 C128.245115,25.0854467 128.069336,24.5507841 128.069336,23.9765625 L130.477539,23.9765625 C130.500977,24.4277366 130.667967,24.7734363 130.978516,25.0136719 C131.289064,25.2539075 131.705076,25.3740234 132.226562,25.3740234 C132.712893,25.3740234 133.080565,25.2817392 133.32959,25.097168 C133.578615,24.9125967 133.703125,24.6708999 133.703125,24.3720703 Z M53,0 L54,0 L54,40 L53,40 L53,0 Z M35,14.7328373 L32.2612058,27.504323 C31.7012942,30.1072804 30.7956913,32.0462113 29.4924716,33.4296465 C27.8410196,35.1834494 25.5191761,36 22.1854482,36 C20.9084122,36 19.493608,35.7658544 18.2652936,35.4197165 C16.4043718,34.8952616 14.7829703,33.6481601 14.0161301,31.8198817 C13.6886679,31.0393965 13.4857165,30.0235374 14.0357955,29.2917347 C14.5483112,28.6089497 15.7715436,28.2532092 16.5885417,28.2532092 C16.7473011,28.2532092 16.863084,28.2564473 16.9207544,28.2585688 L17.201815,28.2690646 C17.201815,28.2690646 17.1282355,27.3107091 17.2242424,26.6866558 L17.2579388,26.4049442 L0,26.4049442 L3.22413194,11.0884513 C3.40819129,10.2309224 3.30798611,9.50514927 2.92473169,8.93056026 C2.38691604,8.1251754 1.41480429,7.80349041 0.69436553,7.67463776 L0.165830177,7.62093055 L0.52511048,6 L10.5095013,6 L7.32094381,21.15057 L14.6447601,21.15057 L14.9450442,19.6417435 C15.0955177,18.7618831 14.9333333,18.0305271 14.4630208,17.4685554 C13.7326389,16.5963994 12.4457702,16.3890516 11.8573548,16.3402573 L12.2142045,14.7328373 L22.3100694,14.7328373 L19.8706755,26.1265823 C19.7466067,26.7591215 19.6960069,27.3128306 19.7194287,27.7718541 C19.8131155,29.5592659 20.9238794,30.5440842 22.848327,30.5440842 C23.767077,30.5440842 24.5775568,30.2200544 25.1317235,29.6307266 C25.7591383,28.9648019 26.1221749,28.1369739 26.4730587,26.5744401 L27.9192393,19.7308461 C28.0944602,18.8206149 27.9436553,18.0655876 27.4685922,17.4873139 C26.7410827,16.5993025 25.4400726,16.3894982 24.8479009,16.3402573 L25.2044192,14.7328373 L35,14.7328373 Z" id="logo_mobile" fill="#171F33"></path>
    </g>
</svg>