<?xml version="1.0" encoding="UTF-8"?>
<svg width="152px" height="69px" viewBox="0 0 152 69" version="1.1" xmlns="http://www.w3.org/2000/svg" xmlns:xlink="http://www.w3.org/1999/xlink">
    <!-- Generator: Sketch 47.1 (45422) - http://www.bohemiancoding.com/sketch -->
    <title>Course Progress 1@2x</title>
    <desc>Created with Sketch.</desc>
    <defs></defs>
    <g id="Matching-FCI" stroke="none" stroke-width="1" fill="none" fill-rule="evenodd">
        <g id="course-home-(two-profs)" transform="translate(-1131.000000, -364.000000)">
            <g id="%-and-laurels" transform="translate(1131.000000, 364.000000)">
                <g id="Course-Progress-1">
                    <path d="M126.657975,61.0370385 C122.521589,60.7678077 118.93366,57.2166538 117.096467,55.0278077 C119.209239,53.0974231 123.207835,50.0039615 127.35773,50.2947308 C131.499519,50.5585769 135.090151,54.1178077 136.927344,56.3066538 C134.819975,58.2397308 130.694396,61.3251154 126.657975,61.0370385 M102.998712,43.0308846 C102.390818,43.1735769 101.739695,43.2489615 101.066958,43.2489615 C97.5898,43.2489615 94.1072386,41.3858846 92.0917298,40.0774231 C93.5452737,37.6112692 96.5090982,33.4974231 100.513098,32.5524231 C101.120993,32.4097308 101.769414,32.3370385 102.442151,32.3370385 C105.919309,32.3370385 109.404572,34.2028077 111.420081,35.5085769 C109.966537,37.9747308 107.005414,42.0858846 102.998712,43.0308846 M73.6954842,35.6889615 C71.4287123,37.4766538 68.2298351,37.8508846 65.9441509,37.8508846 C64.6689228,37.8508846 63.4909579,37.7378077 62.5534491,37.6058846 C62.8263263,34.7601154 63.7638351,29.7847308 66.9924316,27.2405 C68.9187825,25.7301154 71.4827474,25.2508846 73.6198351,25.1351154 C75.1301158,25.1593462 76.634993,25.2374231 78.1344667,25.3666538 C77.8642912,28.2151154 76.9375895,33.1420385 73.6954842,35.6889615 M48.0261158,42.2689615 C46.748186,46.1997308 42.4037649,48.7951154 39.8208877,50.0308846 C38.4565018,47.5243462 36.462607,42.8908846 37.7378351,38.9574231 C38.618607,36.2462692 40.9502211,34.1866538 43.1656596,32.7543462 C44.1112737,32.2428077 45.0595895,31.7797308 46.0052035,31.3220385 C47.3695895,33.8528077 49.2797298,38.3974231 48.0261158,42.2689615 M16.1265018,59.4728077 C13.3788175,62.5770385 8.33734386,63.2366538 5.50860702,63.3470385 C5.26274737,60.4985769 5.29516842,55.4343462 8.01853684,52.3570385 C10.7581158,49.2555 15.7914842,48.5931923 18.6283263,48.4828077 C18.8714842,51.3312692 18.8444667,56.3955 16.1265018,59.4728077 M22.6944667,22.7981923 C24.9423263,21.0266538 29.1705719,18.2562692 33.2745368,18.8270385 C37.3812035,19.3951154 40.7043614,23.2047308 42.3713439,25.5228077 C40.136993,27.2943462 35.9384667,30.0566538 31.7858702,29.4885769 C27.6765018,28.9178077 24.3614491,25.1135769 22.6944667,22.7981923 M74.5060105,8.02819231 C77.6049228,10.7797308 78.2398351,15.7847308 78.3343965,18.6358846 C75.5840105,18.8620385 70.4776947,18.8755 67.3220456,16.0781923 C64.2258351,13.3266538 63.5855193,8.31896154 63.4909579,5.46780769 C66.2467474,5.24703846 71.3530632,5.23626923 74.5060105,8.02819231 M106.56773,11.3505 C109.258677,12.3493462 113.838151,14.5408846 115.467309,18.3074231 C117.109975,22.1035769 115.564572,26.9093462 114.440642,29.5343462 C111.752396,28.5462692 107.186432,26.3681923 105.546467,22.5720385 C103.906502,18.7785769 105.446502,13.9781923 106.56773,11.3505 M135.036116,42.3766538 C134.584923,38.2655 137.473098,34.1220385 139.318396,31.9412692 C141.593274,33.6697308 145.324396,37.0862692 145.778291,41.1947308 C146.226782,45.2681923 143.38994,49.3712692 141.54194,51.5681923 C140.504467,50.6447308 139.453484,49.7293462 138.394396,48.8220385 C136.776046,47.0666538 135.308993,44.8508846 135.036116,42.3766538 M150.506361,60.0193462 C148.888011,58.4039615 147.218326,56.8047308 145.521625,55.2135769 C147.934291,52.3866538 151.830221,46.7731923 151.149379,40.6051154 C150.19566,31.9681923 140.696291,26.3170385 140.291028,26.0828077 C139.264361,25.4797308 137.959414,25.6224231 137.078642,26.4355 C136.754432,26.7397308 129.470502,33.6320385 129.605589,41.7547308 C125.933905,38.9951154 122.154151,36.3943462 118.27173,34.0062692 C118.94987,32.7920385 123.713063,23.7620385 120.42773,16.1751154 C116.977589,8.19780769 106.238116,5.56473077 105.781519,5.45703846 C104.622467,5.17703846 103.412081,5.69934615 102.817695,6.73319231 C102.582642,7.13703846 97.1359053,16.7243462 100.583344,24.7016538 C100.653589,24.8658846 100.745449,25.0166538 100.821098,25.1755 C95.2500807,22.9678077 89.5439754,21.3228077 83.7379053,20.3724231 C83.8297649,17.6262692 83.6514491,8.93280769 78.0966421,4.00588462 C74.3628175,0.694346154 69.2105719,-0.000269230769 65.5496947,-0.000269230769 C62.5912737,-0.000269230769 60.3731333,0.446653846 60.2785719,0.4655 C59.1060105,0.705115385 58.2333439,1.68511538 58.1306772,2.87242308 C58.0901509,3.3355 57.2255895,14.2770385 63.6935895,20.0655 C58.5116246,20.7924231 53.2945368,22.2031923 48.0558351,24.3435769 C46.9805368,22.5316538 41.830993,14.5731923 34.0175193,13.4935769 C25.496186,12.2981923 17.5395193,20.0978077 17.2315193,20.4101154 C16.3912737,21.2555 16.2075544,22.5531923 16.7830281,23.5978077 C17.0018702,23.9935769 22.0838702,33.0181923 30.2647825,34.6658846 C27.0091684,37.1374231 23.7589579,39.9293462 20.5222561,43.0928077 C20.2736947,43.0847308 19.9900105,43.0793462 19.6306772,43.0793462 C15.6645018,43.0793462 8.35625614,43.8197308 3.96320351,48.7978077 C-1.80234035,55.3158846 0.399589474,66.1147308 0.496852632,66.5724231 C0.742712281,67.7328077 1.73425614,68.5997308 2.92032632,68.6993462 C2.92032632,68.6993462 3.52011579,68.7505 4.5143614,68.7505 C8.47783509,68.7505 15.7806772,68.0074231 20.1818351,63.0320385 C24.5127474,58.1266538 24.3371333,50.8035769 23.9426772,47.2793462 C26.6282211,44.6355 29.3218702,42.2797308 32.0209228,40.1528077 C31.2968526,47.5189615 36.2815895,54.6401154 36.5220456,54.9766538 C37.0380807,55.7035769 37.8675193,56.1101154 38.7239754,56.1101154 C39.0157649,56.1101154 39.3102561,56.0643462 39.5939404,55.9674231 C40.0370281,55.8166538 50.4820105,52.1901154 53.1648526,43.9247308 C54.953414,38.4081923 52.7298702,32.5631923 50.9710281,29.1655 C54.2023263,27.9243462 57.4282211,26.9820385 60.640607,26.3251154 C56.8878702,31.9816538 57.0337649,39.5039615 57.0445719,39.8889615 C57.0796947,41.0762692 57.8956246,42.1047308 59.0519754,42.4143462 C59.1735544,42.4466538 62.180607,43.2355 65.9441509,43.2355 C70.5128175,43.2355 74.2493439,42.1181923 77.0483614,39.9158846 C81.7602211,36.2031923 83.1165018,29.8197308 83.4974491,26.0531923 C87.4393088,26.7235769 91.3379404,27.7224231 95.1798351,29.0281923 C89.3521509,32.5685769 86.2829579,39.4716538 86.1289579,39.8243462 C85.6534491,40.9174231 85.9587474,42.1935769 86.8719404,42.9581923 C87.1529228,43.1897308 93.7533088,48.6335769 101.066958,48.6335769 C102.161168,48.6335769 103.228361,48.5097308 104.244221,48.2701154 C109.836853,46.9535769 113.676046,42.1262692 115.702361,38.8631923 C118.839098,40.7908846 121.910993,42.8612692 124.90994,45.0501154 C117.51794,46.1108846 111.736186,52.7393462 111.471414,53.0462692 C110.696011,53.9535769 110.609554,55.2593462 111.260677,56.2608846 C111.517344,56.6512692 117.607098,65.8455 126.306747,66.4108846 C126.593133,66.4297308 126.874116,66.4378077 127.160502,66.4378077 C133.977028,66.4378077 139.764186,61.1851154 141.785098,59.1093462 C143.452081,60.6681923 145.094747,62.2405 146.686081,63.8262692 C147.212923,64.3512692 147.904572,64.6151154 148.596221,64.6151154 C149.28787,64.6151154 149.979519,64.3512692 150.506361,63.8262692 C151.562747,62.7762692 151.562747,61.0720385 150.506361,60.0193462" id="Fill-2" fill="#00AB6C"></path>
                    <path d="M126.657975,61.0370385 C122.521589,60.7678077 118.93366,57.2166538 117.096467,55.0278077 C119.209239,53.0974231 123.207835,50.0039615 127.35773,50.2947308 C131.499519,50.5585769 135.090151,54.1178077 136.927344,56.3066538 C134.819975,58.2397308 130.694396,61.3251154 126.657975,61.0370385" id="Path" fill="#8ED7B4"></path>
                    <path d="M102.998712,43.0308846 C102.390818,43.1735769 101.739695,43.2489615 101.066958,43.2489615 C97.5898,43.2489615 94.1072386,41.3858846 92.0917298,40.0774231 C93.5452737,37.6112692 96.5090982,33.4974231 100.513098,32.5524231 C101.120993,32.4097308 101.769414,32.3370385 102.442151,32.3370385 C105.919309,32.3370385 109.404572,34.2028077 111.420081,35.5085769 C109.966537,37.9747308 107.005414,42.0858846 102.998712,43.0308846" id="Path" fill="#8ED7B4"></path>
                    <path d="M73.6954842,35.6889615 C71.4287123,37.4766538 68.2298351,37.8508846 65.9441509,37.8508846 C64.6689228,37.8508846 63.4909579,37.7378077 62.5534491,37.6058846 C62.8263263,34.7601154 63.7638351,29.7847308 66.9924316,27.2405 C68.9187825,25.7301154 71.4827474,25.2508846 73.6198351,25.1351154 C75.1301158,25.1593462 76.634993,25.2374231 78.1344667,25.3666538 C77.8642912,28.2151154 76.9375895,33.1420385 73.6954842,35.6889615" id="Path" fill="#8ED7B4"></path>
                    <path d="M48.0261158,42.2689615 C46.748186,46.1997308 42.4037649,48.7951154 39.8208877,50.0308846 C38.4565018,47.5243462 36.462607,42.8908846 37.7378351,38.9574231 C38.618607,36.2462692 40.9502211,34.1866538 43.1656596,32.7543462 C44.1112737,32.2428077 45.0595895,31.7797308 46.0052035,31.3220385 C47.3695895,33.8528077 49.2797298,38.3974231 48.0261158,42.2689615" id="Path" fill="#8ED7B4"></path>
                    <path d="M16.1265018,59.4728077 C13.3788175,62.5770385 8.33734386,63.2366538 5.50860702,63.3470385 C5.26274737,60.4985769 5.29516842,55.4343462 8.01853684,52.3570385 C10.7581158,49.2555 15.7914842,48.5931923 18.6283263,48.4828077 C18.8714842,51.3312692 18.8444667,56.3955 16.1265018,59.4728077" id="Path" fill="#8ED7B4"></path>
                    <path d="M22.6944667,22.7981923 C24.9423263,21.0266538 29.1705719,18.2562692 33.2745368,18.8270385 C37.3812035,19.3951154 40.7043614,23.2047308 42.3713439,25.5228077 C40.136993,27.2943462 35.9384667,30.0566538 31.7858702,29.4885769 C27.6765018,28.9178077 24.3614491,25.1135769 22.6944667,22.7981923" id="Path" fill="#8ED7B4"></path>
                    <path d="M74.5060105,8.02819231 C77.6049228,10.7797308 78.2398351,15.7847308 78.3343965,18.6358846 C75.5840105,18.8620385 70.4776947,18.8755 67.3220456,16.0781923 C64.2258351,13.3266538 63.5855193,8.31896154 63.4909579,5.46780769 C66.2467474,5.24703846 71.3530632,5.23626923 74.5060105,8.02819231" id="Path" fill="#8ED7B4"></path>
                    <path d="M106.56773,11.3505 C109.258677,12.3493462 113.838151,14.5408846 115.467309,18.3074231 C117.109975,22.1035769 115.564572,26.9093462 114.440642,29.5343462 C111.752396,28.5462692 107.186432,26.3681923 105.546467,22.5720385 C103.906502,18.7785769 105.446502,13.9781923 106.56773,11.3505" id="Path" fill="#8ED7B4"></path>
                    <path d="M135.036116,42.3766538 C134.584923,38.2655 137.473098,34.1220385 139.318396,31.9412692 C141.593274,33.6697308 145.324396,37.0862692 145.778291,41.1947308 C146.226782,45.2681923 143.38994,49.3712692 141.54194,51.5681923 C140.504467,50.6447308 139.453484,49.7293462 138.394396,48.8220385 C136.776046,47.0666538 135.308993,44.8508846 135.036116,42.3766538" id="Path" fill="#8ED7B4"></path>
                </g>
            </g>
        </g>
    </g>
</svg>